<svg width="76" height="63" viewBox="0 0 76 63" fill="none" xmlns="http://www.w3.org/2000/svg">
<path d="M43.3831 0.773388C41.6997 0.997997 39.5084 1.7976 37.8625 2.7769C35.3044 4.29526 33.3953 6.3437 32.0692 8.9851C31.0064 11.1234 30.8184 11.9859 30.8184 14.8339C30.8278 17.4484 31.0064 18.3468 31.9281 20.3324C32.3231 21.1859 32.3325 21.2578 32.0692 21.2578C31.74 21.2578 23.5673 19.991 17.5482 19.0117C11.3599 18.0054 9.03693 17.655 8.23752 17.6011C7.56038 17.5562 7.45693 17.5742 7.16538 17.7718C6.98669 17.8796 6.76097 18.1042 6.67633 18.248C6.53526 18.4726 6.23431 19.9371 5.55716 23.7285C4.01478 32.2906 1.6824 45.6144 0.995854 49.7742C0.788949 51.014 0.676092 51.9574 0.713711 52.1371C0.798354 52.6042 1.26859 53.0445 1.83288 53.1972C2.4724 53.3769 13.7581 55.2097 27.1881 57.33C28.6082 57.5546 30.2635 57.8152 30.856 57.914C32.2949 58.1566 50.0135 60.9507 53.0042 61.4089C56.5592 61.957 58.9574 62.2445 59.5781 62.2085C60.0295 62.1726 60.1706 62.1277 60.3399 61.939C60.6503 61.5886 60.8384 60.6812 62.7381 50.0078C63.5657 45.3359 63.6128 45.1113 63.7162 45.0124C63.7726 44.9496 64.2147 44.7968 64.6943 44.671C70.3184 43.1437 74.4282 38.9929 75.6414 33.6203C75.9142 32.4164 75.933 29.748 75.6885 28.4453C75.4816 27.3761 74.9831 25.9476 74.5035 25.0312C72.9235 22.0484 69.7353 19.1374 66.7069 17.9246C65.1928 17.3226 64.0078 17.098 61.0923 16.8734L60.2459 16.8105L60.1894 14.789C60.1142 12.0757 59.8697 10.9976 58.8916 8.99409C57.2081 5.56206 53.6813 2.50737 50.1169 1.39331C48.5745 0.917133 47.6059 0.7644 45.7155 0.728462C44.7562 0.710495 43.7123 0.728466 43.3831 0.773388ZM47.8598 3.91792C50.1828 4.36713 51.9791 5.26558 53.6061 6.8019C54.9416 8.07768 55.6563 9.08393 56.2582 10.5574C56.8413 11.9679 56.9072 12.3902 56.9072 14.7621C56.9166 17.4124 56.9354 17.3585 55.8068 17.8527C54.7159 18.3109 54.1892 18.5894 53.3334 19.1285C51.1232 20.521 48.979 22.7671 47.9538 24.7617L47.4554 25.723L46.9005 25.7859C44.0603 26.0824 40.9755 25.3546 38.709 23.8542C37.9001 23.3242 36.4048 21.8687 35.7464 20.9613C34.4862 19.2542 33.762 16.6128 33.9031 14.232C34.0536 11.8331 35.0035 9.32651 36.386 7.69135C38.2293 5.52612 41.22 4.02573 44.3518 3.70229C45.076 3.63042 46.9569 3.74721 47.8598 3.91792ZM63.3212 20.0988C64.6943 20.2785 66.5659 20.9972 67.8073 21.8238C68.5973 22.3539 70.2807 23.9441 70.751 24.6089C71.2212 25.2738 71.9454 26.7292 72.2934 27.7355L72.5567 28.4902L72.5661 31.0058V33.5214L72.2463 34.3749C71.1366 37.3757 69.2274 39.5679 66.6599 40.8078C63.2366 42.4699 58.5154 42.38 55.2895 40.6191C52.7314 39.2175 51.048 37.196 50.1075 34.4199C49.6843 33.1531 49.5244 31.9132 49.6091 30.3769C49.7219 28.0859 50.2204 26.5855 51.443 24.8066C52.0919 23.8632 54.0669 21.9945 54.9228 21.5273C56.4181 20.7097 58.1392 20.1527 59.6534 20C60.4998 19.9191 62.3149 19.964 63.3212 20.0988ZM12.2534 21.2488C13.6829 21.4914 14.8961 21.716 14.9525 21.7429C15.3193 21.9675 14.5105 23.3242 13.3725 24.4023C12.686 25.0582 12.4132 25.2468 11.5762 25.6421C10.6263 26.0824 9.91157 26.289 8.87704 26.4238C8.45383 26.4777 8.37859 26.4597 8.37859 26.3339C8.37859 26.1093 8.92407 22.6414 9.09335 21.8417C9.29085 20.8535 9.30966 20.8085 9.48835 20.8085C9.573 20.8085 10.8238 21.0062 12.2534 21.2488ZM21.7616 22.7941C23.3698 23.0457 27.0753 23.6207 29.9813 24.0878L35.2574 24.9234L36.1414 25.5882C38.9064 27.6996 42.3204 28.8945 45.5556 28.8945H46.4209V30.8441C46.4209 32.596 46.4491 32.9015 46.6466 33.7011C47.9915 39.1187 52.1766 43.2785 57.6784 44.6621C58.158 44.7789 58.9104 44.9226 59.343 44.9765C59.785 45.0214 60.18 45.1023 60.227 45.1472C60.3399 45.255 60.227 46.0726 59.7944 48.4355L59.4935 50.0527L58.7411 50.1156C55.9761 50.3582 54.3397 50.9062 52.581 52.173C50.8317 53.4308 49.8442 54.5089 48.9413 56.1351C48.6122 56.746 48.2642 57.3121 48.1701 57.4019C48.0197 57.5546 47.9256 57.5457 46.0447 57.2312C44.9537 57.0605 43.8345 56.8808 43.5524 56.8359C42.8659 56.7371 29.2007 54.5539 27.4703 54.2753C25.6269 53.9699 19.3728 52.9816 18.7238 52.8828C16.9745 52.6222 13.6641 52.0562 13.4854 51.9843C13.3537 51.9304 13.2597 51.7957 13.2314 51.607C12.8741 49.3699 12.5637 48.3546 11.8866 47.1238C10.7204 45.0124 8.63252 43.0988 6.44121 42.1464C6.07442 41.9847 5.74526 41.814 5.70764 41.7601C5.67002 41.7062 6.12145 38.93 6.69514 35.5968L7.74847 29.5324L8.13407 29.4874C10.2219 29.2718 11.2847 29.0023 12.5637 28.3824C13.7675 27.8074 14.5669 27.2773 15.4886 26.4507C16.4667 25.5613 17.0874 24.7796 17.6517 23.7285C18.1689 22.7761 18.4887 22.3359 18.6862 22.3359C18.7614 22.3359 20.1439 22.5425 21.7616 22.7941ZM7.17478 46.0007C8.66073 47.1238 9.81752 49.1183 9.94919 50.7894L10.0056 51.4542L9.59181 51.3914C8.27514 51.2117 5.05871 50.7085 4.6449 50.6187C4.26871 50.5468 4.14645 50.4749 4.14645 50.3582C4.14645 50.0527 4.99288 45.291 5.08693 45.0843L5.18097 44.8777L5.91454 45.2371C6.30954 45.4437 6.88323 45.7851 7.17478 46.0007ZM58.8822 53.296C58.8822 53.4847 58.1674 57.4648 57.9887 58.2914C57.9135 58.6328 57.8476 58.9292 57.8476 58.9562C57.8476 59.073 56.277 58.8843 53.4274 58.4082C51.4994 58.0937 51.5464 58.1027 51.5464 57.905C51.5464 57.4378 52.4869 56.0453 53.3522 55.2367C54.7723 53.907 56.4745 53.1882 58.2991 53.1613C58.7787 53.1523 58.8822 53.1792 58.8822 53.296Z" fill="black"/>
<path d="M45.1888 5.31945C44.6151 5.60695 44.2107 6.11906 44.2107 6.56828C44.2107 6.96359 44.0602 7.11632 43.2984 7.51163C42.358 8.00578 41.3611 8.95812 40.9473 9.75773C39.9221 11.7343 40.5334 13.6749 42.5649 14.9237C43.2326 15.328 43.9004 15.6155 45.4992 16.1905C47.0509 16.7386 47.1826 16.8015 47.5306 17.1069C48.029 17.5562 47.8033 18.5444 47.098 18.9937C46.7876 19.1913 46.5995 19.2362 45.9224 19.2632C44.869 19.3081 44.1731 19.1015 43.0821 18.3917C41.8501 17.6011 41.4457 17.5112 40.7592 17.8886C40.0632 18.2839 39.7623 19.2452 40.1196 19.9101C40.4018 20.4312 41.4457 21.0601 43.9004 22.1741C44.0226 22.237 44.1355 22.4077 44.2013 22.6503C44.333 23.1444 44.8879 23.6386 45.4145 23.7284C46.2609 23.8632 47.1544 23.3151 47.2767 22.5964C47.3425 22.228 47.4836 22.0933 48.1889 21.7519C48.8002 21.4554 49.8065 20.5749 50.2109 19.9999C51.1984 18.5984 51.2925 17.3046 50.5025 15.9839C49.7689 14.753 48.5463 13.9984 45.7813 13.055C43.9098 12.4081 43.3925 11.9679 43.637 11.1952C43.8815 10.4226 44.5587 10.0273 45.6496 10.0273C46.5149 10.0273 46.8911 10.18 47.6058 10.8089C48.3112 11.4198 48.5275 11.5097 49.167 11.4378C50.3144 11.321 50.8787 10.162 50.2486 9.20968C49.8536 8.61671 48.8943 7.84406 48.1137 7.4757C47.4554 7.17023 47.4083 7.12531 47.3143 6.76593C47.1356 6.12804 47.1074 6.0382 46.9569 5.82257C46.6465 5.37335 45.6496 5.09484 45.1888 5.31945Z" fill="#1AD079"/>
<path d="M60.8665 21.7699C60.4715 21.9586 60.133 22.4527 60.0483 22.9648C59.9637 23.4859 59.9261 23.5308 59.1267 23.9351C58.299 24.3484 57.2551 25.3277 56.8507 26.0644C55.7598 28.05 56.5027 30.1343 58.7599 31.4371C59.1737 31.6707 60.1612 32.0929 60.9982 32.3894C63.3118 33.198 63.5751 33.3508 63.7162 33.9886C63.7914 34.3211 63.5469 34.95 63.2271 35.2105C62.3995 35.9203 60.7913 35.7226 58.9009 34.6715C58.0075 34.1773 57.763 34.0875 57.3868 34.0785C55.7692 34.0515 55.3083 35.9562 56.7002 36.9355C57.1517 37.259 58.8163 38.0945 59.5123 38.3551C59.8602 38.4808 59.9167 38.5527 60.0107 38.8851C60.2929 39.9273 60.8101 40.4125 61.6565 40.4125C62.4371 40.4125 63.0673 39.8554 63.1707 39.0738C63.246 38.5258 63.3024 38.4629 63.9983 38.1304C64.6379 37.825 64.8636 37.6722 65.4561 37.1332C66.8198 35.9023 67.2524 34.0426 66.5282 32.5781C65.8511 31.1945 64.5532 30.332 61.807 29.4246C59.8885 28.7957 59.4746 28.4633 59.5687 27.6547C59.6627 26.8101 60.3399 26.3789 61.5719 26.3789C62.0045 26.3789 62.456 26.4148 62.5876 26.4687C62.7193 26.5136 63.1237 26.8101 63.4905 27.1336C63.9419 27.5379 64.2617 27.7355 64.4874 27.7804C65.804 28.014 66.7821 26.882 66.2743 25.7051C66.0204 25.139 64.8636 24.2136 63.7068 23.6476C63.4058 23.5039 63.2083 23.3511 63.1989 23.2523C63.1707 22.4976 62.8886 22.0215 62.3337 21.7609C61.9199 21.5812 61.2804 21.5812 60.8665 21.7699Z" fill="#1AD079"/>
<path d="M35.0223 27.3671C34.2794 27.5288 34.0254 27.8972 33.6774 29.3527L33.4799 30.2241L32.9251 30.323C30.6491 30.7542 28.6929 32.0929 27.8935 33.773C27.3669 34.8691 27.3951 36.5312 27.9499 37.5195C28.4954 38.4898 29.7651 39.7476 31.1476 40.673C31.3451 40.8077 31.3545 40.8257 31.2416 41.5714C31.1099 42.4429 30.3858 45.9917 30.3294 46.0456C30.2071 46.1624 29.2008 45.4257 27.9876 44.3386C26.8214 43.2874 26.2571 43.1796 25.4671 43.8894C24.8934 44.3925 24.7617 45.0304 25.1003 45.6683C25.4765 46.3511 27.1882 47.8066 28.5142 48.5433C29.5958 49.1452 29.6616 49.2261 29.5958 49.7741C29.4265 51.1577 29.4171 51.589 29.577 51.8675C29.972 52.6132 30.9219 52.8917 31.7024 52.5054C32.2573 52.2359 32.4924 51.8136 32.6994 50.7445C32.8969 49.7831 32.784 49.873 34.1477 49.5136C35.4644 49.1632 36.3954 48.6601 37.3171 47.8066C37.9284 47.2226 38.1635 46.9351 38.4457 46.3691L38.803 45.6503V44.3925C38.803 43.1796 38.7936 43.1167 38.5303 42.6406C37.9284 41.5534 37.0444 40.6011 35.8217 39.7386C35.201 39.3074 35.0882 39.1816 35.0882 38.9659C35.0882 38.2831 35.9816 34.2491 36.1697 34.1054C36.3296 33.9796 36.5835 34.2222 36.9691 34.8781C37.7309 36.1628 38.8124 36.5132 39.6965 35.7585C40.1855 35.3363 40.3172 34.9409 40.1761 34.321C39.9598 33.4226 38.756 32.0659 37.3829 31.1945L36.7246 30.7812L36.7998 30.2152C36.9973 28.7238 36.9973 28.58 36.8092 28.1577C36.5177 27.5288 35.7841 27.2054 35.0223 27.3671ZM32.8122 33.5034C32.8498 33.6652 32.1069 37.4296 32.0316 37.5015C31.9376 37.5913 31.0441 36.6749 30.856 36.2976C30.6303 35.8574 30.6209 35.6327 30.8184 34.9949C30.9313 34.6175 31.0817 34.4019 31.4767 34.0335C32.1821 33.3777 32.7464 33.1531 32.8122 33.5034ZM35.1258 43.0089C35.8876 43.8714 35.9064 44.9675 35.1728 45.812C34.8624 46.1714 34.0254 46.6835 33.7433 46.6835C33.5364 46.6835 33.5458 46.6027 33.9784 44.3925C34.3546 42.4429 34.4863 42.2812 35.1258 43.0089Z" fill="black"/>
</svg>
