<svg width="45" height="31" viewBox="0 0 45 31" fill="none" xmlns="http://www.w3.org/2000/svg">
<path d="M4.53453 1.00927L3.76953 1.78427V3.58427V5.37927H5.31953H6.86953L6.87953 3.71427C6.88453 2.80427 6.88953 1.99927 6.89453 1.92927C6.89453 1.82927 6.72953 1.63427 6.11953 1.01427C5.69453 0.584272 5.33453 0.229272 5.31953 0.229272C5.30453 0.234272 4.94953 0.584272 4.53453 1.00927Z" fill="black"/>
<path d="M13.1296 0.994273L12.3696 1.75427V3.56927V5.37927H13.9196H15.4696V3.56427V1.75427L14.7046 0.989273C14.2846 0.574273 13.9346 0.229272 13.9196 0.229272C13.9046 0.229272 13.5496 0.574273 13.1296 0.994273Z" fill="black"/>
<path d="M21.7297 0.994273L20.9697 1.75427V3.56927V5.37927H22.5197H24.0697V3.56427V1.75427L23.3047 0.989273C22.8847 0.574273 22.5347 0.229272 22.5197 0.229272C22.5047 0.229272 22.1497 0.574273 21.7297 0.994273Z" fill="black"/>
<path d="M30.3296 0.994273L29.5696 1.75427V3.56927V5.37927H31.1196H32.6696V3.56427V1.75427L31.9046 0.989273C31.4846 0.574273 31.1346 0.229272 31.1196 0.229272C31.1046 0.229272 30.7496 0.574273 30.3296 0.994273Z" fill="black"/>
<path d="M38.9195 1.01427C38.3095 1.63427 38.1445 1.82927 38.1445 1.92927C38.1495 1.99927 38.1545 2.80427 38.1595 3.71427L38.1695 5.37927H39.7195H41.2695V3.57927V1.78427L40.4995 1.00427C40.0795 0.579273 39.7245 0.229272 39.7145 0.229272C39.7045 0.229272 39.3445 0.584272 38.9195 1.01427Z" fill="black"/>
<path d="M0.639639 8.46427L0.644639 10.0043H22.5196H44.3946L44.4046 8.46427L44.4146 6.92927H22.5246H0.629639L0.639639 8.46427ZM6.11964 8.50427V9.27927H5.34464H4.56964V8.50427V7.72927H5.34464H6.11964V8.50427ZM14.7196 8.50427V9.28427L13.9396 9.26927L13.1546 9.25427L13.1496 8.48927L13.1446 7.72927H13.9346H14.7196V8.50427ZM23.3096 8.48927L23.2946 9.25427H22.5196H21.7446L21.7296 8.48927L21.7146 7.72927H22.5196H23.3246L23.3096 8.48927ZM31.8896 8.48927L31.8846 9.25427L31.0996 9.26927L30.3196 9.28427V8.50427V7.72927H31.1096H31.8946L31.8896 8.48927ZM40.4696 8.50427V9.27927H39.6946H38.9196V8.50427V7.72927H39.6946H40.4696V8.50427Z" fill="#1AD079"/>
<path d="M3.76953 16.3042V20.9792H5.33453H6.89453V16.3042V11.6292H5.33453H3.76953V16.3042Z" fill="black"/>
<path d="M12.3696 16.3042V20.9792H13.9196H15.4696V16.3042V11.6292H13.9196H12.3696V16.3042Z" fill="black"/>
<path d="M20.9697 16.3042V20.9792H22.5197H24.0697V16.3042V11.6292H22.5197H20.9697V16.3042Z" fill="black"/>
<path d="M29.5696 16.3042V20.9792H31.1196H32.6696V16.3042V11.6292H31.1196H29.5696V16.3042Z" fill="black"/>
<path d="M38.1445 16.3042V20.9792H39.7095H41.2695V16.3042V11.6292H39.7095H38.1445V16.3042Z" fill="black"/>
<path d="M0.654648 22.5643C0.644648 22.5893 0.639648 23.2893 0.639648 24.1293L0.644648 25.6543H22.5196H44.3946L44.3896 24.1043V22.5543L22.5296 22.5393C10.5096 22.5343 0.664648 22.5443 0.654648 22.5643ZM6.11965 24.1043V24.8793H5.34465H4.56965V24.1043V23.3293H5.34465H6.11965V24.1043ZM14.7196 24.1043V24.8793H13.9496H13.1746L13.1596 24.2643C13.1496 23.9293 13.1496 23.5793 13.1596 23.4893L13.1746 23.3293H13.9496H14.7196V24.1043ZM23.3196 24.1043V24.8793H22.5196H21.7196V24.1043V23.3293H22.5196H23.3196V24.1043ZM31.8796 23.4893C31.8896 23.5793 31.8896 23.9293 31.8796 24.2643L31.8646 24.8793H31.0896H30.3196V24.1043V23.3293H31.0896H31.8646L31.8796 23.4893ZM40.4696 24.1043V24.8793H39.6946H38.9196V24.1043V23.3293H39.6946H40.4696V24.1043Z" fill="#1AD079"/>
<path d="M3.76953 28.8043V30.3793H5.31953C6.17453 30.3793 6.86953 30.3643 6.86953 30.3393C6.86953 30.3193 6.87453 29.6193 6.87953 28.7793L6.88953 27.2543L5.32953 27.2393L3.76953 27.2293V28.8043Z" fill="black"/>
<path d="M12.3696 28.8043V30.3793H13.9196H15.4696V28.8043V27.2293H13.9196H12.3696V28.8043Z" fill="black"/>
<path d="M20.9697 28.8043V30.3793H22.5197H24.0697V28.8043V27.2293H22.5197H20.9697V28.8043Z" fill="black"/>
<path d="M29.5696 28.8043V30.3793H31.1196H32.6696V28.8043V27.2293H31.1196H29.5696V28.8043Z" fill="black"/>
<path d="M38.1596 27.7643C38.1446 28.8043 38.1446 30.2543 38.1646 30.3143C38.1746 30.3643 38.5296 30.3793 39.7246 30.3793H41.2696V28.8043V27.2293H39.7196H38.1696L38.1596 27.7643Z" fill="black"/>
</svg>
