<svg width="227" height="102" viewBox="0 0 227 102" fill="none" xmlns="http://www.w3.org/2000/svg">
<rect width="200" height="102" rx="8" transform="matrix(-1 0 0 1 227 0)" fill="white"/>
<path d="M65.5 18L76.3253 24.25V36.75L65.5 43L54.6747 36.75V24.25L65.5 18Z" fill="#1AD079"/>
<path opacity="0.7" d="M107.664 32.4688C107.664 35.6146 106.245 37.1875 103.406 37.1875C100.688 37.1875 99.3281 35.6745 99.3281 32.6484V25.7969H100.641V32.5625C100.641 34.8594 101.609 36.0078 103.547 36.0078C105.417 36.0078 106.352 34.8984 106.352 32.6797V25.7969H107.664V32.4688ZM116.938 37H115.656V32.4375C115.656 30.7396 115.036 29.8906 113.797 29.8906C113.156 29.8906 112.625 30.1328 112.203 30.6172C111.786 31.0964 111.578 31.7031 111.578 32.4375V37H110.297V29H111.578V30.3281H111.609C112.214 29.3177 113.089 28.8125 114.234 28.8125C115.109 28.8125 115.779 29.0964 116.242 29.6641C116.706 30.2266 116.938 31.0417 116.938 32.1094V37ZM124.812 36.6328C124.198 37.0026 123.469 37.1875 122.625 37.1875C121.484 37.1875 120.562 36.8177 119.859 36.0781C119.161 35.3333 118.812 34.3698 118.812 33.1875C118.812 31.8698 119.19 30.8125 119.945 30.0156C120.701 29.2135 121.708 28.8125 122.969 28.8125C123.672 28.8125 124.292 28.9427 124.828 29.2031V30.5156C124.234 30.099 123.599 29.8906 122.922 29.8906C122.104 29.8906 121.432 30.1849 120.906 30.7734C120.385 31.3568 120.125 32.125 120.125 33.0781C120.125 34.0156 120.37 34.7552 120.859 35.2969C121.354 35.8385 122.016 36.1094 122.844 36.1094C123.542 36.1094 124.198 35.8776 124.812 35.4141V36.6328ZM130.094 37.1875C128.911 37.1875 127.966 36.8151 127.258 36.0703C126.555 35.3203 126.203 34.3281 126.203 33.0938C126.203 31.75 126.57 30.7005 127.305 29.9453C128.039 29.1901 129.031 28.8125 130.281 28.8125C131.474 28.8125 132.404 29.1797 133.07 29.9141C133.742 30.6484 134.078 31.6667 134.078 32.9688C134.078 34.2448 133.716 35.2682 132.992 36.0391C132.273 36.8047 131.307 37.1875 130.094 37.1875ZM130.188 29.8906C129.365 29.8906 128.714 30.1719 128.234 30.7344C127.755 31.2917 127.516 32.0625 127.516 33.0469C127.516 33.9948 127.758 34.7422 128.242 35.2891C128.727 35.8359 129.375 36.1094 130.188 36.1094C131.016 36.1094 131.651 35.8411 132.094 35.3047C132.542 34.7682 132.766 34.0052 132.766 33.0156C132.766 32.0156 132.542 31.2448 132.094 30.7031C131.651 30.1615 131.016 29.8906 130.188 29.8906ZM142.766 37H141.484V32.4375C141.484 30.7396 140.865 29.8906 139.625 29.8906C138.984 29.8906 138.453 30.1328 138.031 30.6172C137.615 31.0964 137.406 31.7031 137.406 32.4375V37H136.125V29H137.406V30.3281H137.438C138.042 29.3177 138.917 28.8125 140.062 28.8125C140.938 28.8125 141.607 29.0964 142.07 29.6641C142.534 30.2266 142.766 31.0417 142.766 32.1094V37ZM144.703 36.7109V35.3359C145.401 35.8516 146.169 36.1094 147.008 36.1094C148.133 36.1094 148.695 35.7344 148.695 34.9844C148.695 34.7708 148.646 34.5911 148.547 34.4453C148.453 34.2943 148.323 34.1615 148.156 34.0469C147.995 33.9323 147.802 33.8307 147.578 33.7422C147.359 33.6484 147.122 33.5521 146.867 33.4531C146.513 33.3125 146.201 33.1719 145.93 33.0312C145.664 32.8854 145.44 32.724 145.258 32.5469C145.081 32.3646 144.945 32.1589 144.852 31.9297C144.763 31.7005 144.719 31.4323 144.719 31.125C144.719 30.75 144.805 30.4193 144.977 30.1328C145.148 29.8411 145.378 29.599 145.664 29.4062C145.951 29.2083 146.276 29.0599 146.641 28.9609C147.01 28.862 147.391 28.8125 147.781 28.8125C148.474 28.8125 149.094 28.9323 149.641 29.1719V30.4688C149.052 30.0833 148.375 29.8906 147.609 29.8906C147.37 29.8906 147.154 29.9193 146.961 29.9766C146.768 30.0286 146.602 30.1042 146.461 30.2031C146.326 30.3021 146.219 30.4219 146.141 30.5625C146.068 30.6979 146.031 30.849 146.031 31.0156C146.031 31.224 146.068 31.3984 146.141 31.5391C146.219 31.6797 146.331 31.8047 146.477 31.9141C146.622 32.0234 146.799 32.1224 147.008 32.2109C147.216 32.2995 147.453 32.3958 147.719 32.5C148.073 32.6354 148.391 32.776 148.672 32.9219C148.953 33.0625 149.193 33.224 149.391 33.4062C149.589 33.5833 149.74 33.7891 149.844 34.0234C149.953 34.2578 150.008 34.5365 150.008 34.8594C150.008 35.2552 149.919 35.599 149.742 35.8906C149.57 36.1823 149.339 36.4245 149.047 36.6172C148.755 36.8099 148.419 36.9531 148.039 37.0469C147.659 37.1406 147.26 37.1875 146.844 37.1875C146.021 37.1875 145.307 37.0286 144.703 36.7109ZM155.695 36.9219C155.393 37.0885 154.995 37.1719 154.5 37.1719C153.099 37.1719 152.398 36.3906 152.398 34.8281V30.0938H151.023V29H152.398V27.0469L153.68 26.6328V29H155.695V30.0938H153.68V34.6016C153.68 35.138 153.771 35.5208 153.953 35.75C154.135 35.9792 154.438 36.0938 154.859 36.0938C155.182 36.0938 155.461 36.0052 155.695 35.8281V36.9219ZM161.578 30.2969C161.354 30.125 161.031 30.0391 160.609 30.0391C160.062 30.0391 159.604 30.2969 159.234 30.8125C158.87 31.3281 158.688 32.0312 158.688 32.9219V37H157.406V29H158.688V30.6484H158.719C158.901 30.0859 159.18 29.6484 159.555 29.3359C159.93 29.0182 160.349 28.8594 160.812 28.8594C161.146 28.8594 161.401 28.8958 161.578 28.9688V30.2969ZM168.695 37H167.414V35.75H167.383C166.826 36.7083 166.005 37.1875 164.922 37.1875C164.125 37.1875 163.5 36.9766 163.047 36.5547C162.599 36.1328 162.375 35.5729 162.375 34.875C162.375 33.3802 163.255 32.5104 165.016 32.2656L167.414 31.9297C167.414 30.5703 166.865 29.8906 165.766 29.8906C164.802 29.8906 163.932 30.2188 163.156 30.875V29.5625C163.943 29.0625 164.849 28.8125 165.875 28.8125C167.755 28.8125 168.695 29.8073 168.695 31.7969V37ZM167.414 32.9531L165.484 33.2188C164.891 33.3021 164.443 33.4505 164.141 33.6641C163.839 33.8724 163.688 34.2448 163.688 34.7812C163.688 35.1719 163.826 35.4922 164.102 35.7422C164.383 35.987 164.755 36.1094 165.219 36.1094C165.854 36.1094 166.378 35.888 166.789 35.4453C167.206 34.9974 167.414 34.4323 167.414 33.75V32.9531ZM171.766 26.9688C171.536 26.9688 171.341 26.8906 171.18 26.7344C171.018 26.5781 170.938 26.3802 170.938 26.1406C170.938 25.901 171.018 25.7031 171.18 25.5469C171.341 25.3854 171.536 25.3047 171.766 25.3047C172 25.3047 172.198 25.3854 172.359 25.5469C172.526 25.7031 172.609 25.901 172.609 26.1406C172.609 26.3698 172.526 26.5651 172.359 26.7266C172.198 26.888 172 26.9688 171.766 26.9688ZM172.391 37H171.109V29H172.391V37ZM181.625 37H180.344V32.4375C180.344 30.7396 179.724 29.8906 178.484 29.8906C177.844 29.8906 177.312 30.1328 176.891 30.6172C176.474 31.0964 176.266 31.7031 176.266 32.4375V37H174.984V29H176.266V30.3281H176.297C176.901 29.3177 177.776 28.8125 178.922 28.8125C179.797 28.8125 180.466 29.0964 180.93 29.6641C181.393 30.2266 181.625 31.0417 181.625 32.1094V37ZM190.477 33.3203H184.828C184.849 34.2109 185.089 34.8984 185.547 35.3828C186.005 35.8672 186.635 36.1094 187.438 36.1094C188.339 36.1094 189.167 35.8125 189.922 35.2188V36.4219C189.219 36.9323 188.289 37.1875 187.133 37.1875C186.003 37.1875 185.115 36.8255 184.469 36.1016C183.823 35.3724 183.5 34.349 183.5 33.0312C183.5 31.7865 183.852 30.7734 184.555 29.9922C185.263 29.2057 186.141 28.8125 187.188 28.8125C188.234 28.8125 189.044 29.151 189.617 29.8281C190.19 30.5052 190.477 31.4453 190.477 32.6484V33.3203ZM189.164 32.2344C189.159 31.4948 188.979 30.9193 188.625 30.5078C188.276 30.0964 187.789 29.8906 187.164 29.8906C186.56 29.8906 186.047 30.1068 185.625 30.5391C185.203 30.9714 184.943 31.5365 184.844 32.2344H189.164ZM199.25 37H197.969V35.6406H197.938C197.344 36.6719 196.427 37.1875 195.188 37.1875C194.182 37.1875 193.378 36.8307 192.773 36.1172C192.174 35.3984 191.875 34.4219 191.875 33.1875C191.875 31.8646 192.208 30.8047 192.875 30.0078C193.542 29.2109 194.43 28.8125 195.539 28.8125C196.638 28.8125 197.438 29.2448 197.938 30.1094H197.969V25.1562H199.25V37ZM197.969 33.3828V32.2031C197.969 31.5573 197.755 31.0104 197.328 30.5625C196.901 30.1146 196.359 29.8906 195.703 29.8906C194.922 29.8906 194.307 30.1771 193.859 30.75C193.411 31.3229 193.188 32.1146 193.188 33.125C193.188 34.0469 193.401 34.776 193.828 35.3125C194.26 35.8438 194.839 36.1094 195.562 36.1094C196.276 36.1094 196.854 35.8516 197.297 35.3359C197.745 34.8203 197.969 34.1693 197.969 33.3828Z" fill="black"/>
<path d="M65.5 58L76.3253 64.25V76.75L65.5 83L54.6747 76.75V64.25L65.5 58Z" fill="#E4F9EF"/>
<path opacity="0.7" d="M107.094 78.5312C106.266 78.9688 105.234 79.1875 104 79.1875C102.406 79.1875 101.13 78.6745 100.172 77.6484C99.2135 76.6224 98.7344 75.276 98.7344 73.6094C98.7344 71.8177 99.2734 70.3698 100.352 69.2656C101.43 68.1615 102.797 67.6094 104.453 67.6094C105.516 67.6094 106.396 67.763 107.094 68.0703V69.4688C106.292 69.0208 105.406 68.7969 104.438 68.7969C103.151 68.7969 102.107 69.2266 101.305 70.0859C100.508 70.9453 100.109 72.0938 100.109 73.5312C100.109 74.8958 100.482 75.9844 101.227 76.7969C101.977 77.6042 102.958 78.0078 104.172 78.0078C105.297 78.0078 106.271 77.7578 107.094 77.2578V78.5312ZM112.547 79.1875C111.365 79.1875 110.419 78.8151 109.711 78.0703C109.008 77.3203 108.656 76.3281 108.656 75.0938C108.656 73.75 109.023 72.7005 109.758 71.9453C110.492 71.1901 111.484 70.8125 112.734 70.8125C113.927 70.8125 114.857 71.1797 115.523 71.9141C116.195 72.6484 116.531 73.6667 116.531 74.9688C116.531 76.2448 116.169 77.2682 115.445 78.0391C114.727 78.8047 113.76 79.1875 112.547 79.1875ZM112.641 71.8906C111.818 71.8906 111.167 72.1719 110.688 72.7344C110.208 73.2917 109.969 74.0625 109.969 75.0469C109.969 75.9948 110.211 76.7422 110.695 77.2891C111.18 77.8359 111.828 78.1094 112.641 78.1094C113.469 78.1094 114.104 77.8411 114.547 77.3047C114.995 76.7682 115.219 76.0052 115.219 75.0156C115.219 74.0156 114.995 73.2448 114.547 72.7031C114.104 72.1615 113.469 71.8906 112.641 71.8906ZM125.219 79H123.938V74.4375C123.938 72.7396 123.318 71.8906 122.078 71.8906C121.438 71.8906 120.906 72.1328 120.484 72.6172C120.068 73.0964 119.859 73.7031 119.859 74.4375V79H118.578V71H119.859V72.3281H119.891C120.495 71.3177 121.37 70.8125 122.516 70.8125C123.391 70.8125 124.06 71.0964 124.523 71.6641C124.987 72.2266 125.219 73.0417 125.219 74.1094V79ZM127.156 78.7109V77.3359C127.854 77.8516 128.622 78.1094 129.461 78.1094C130.586 78.1094 131.148 77.7344 131.148 76.9844C131.148 76.7708 131.099 76.5911 131 76.4453C130.906 76.2943 130.776 76.1615 130.609 76.0469C130.448 75.9323 130.255 75.8307 130.031 75.7422C129.812 75.6484 129.576 75.5521 129.32 75.4531C128.966 75.3125 128.654 75.1719 128.383 75.0312C128.117 74.8854 127.893 74.724 127.711 74.5469C127.534 74.3646 127.398 74.1589 127.305 73.9297C127.216 73.7005 127.172 73.4323 127.172 73.125C127.172 72.75 127.258 72.4193 127.43 72.1328C127.602 71.8411 127.831 71.599 128.117 71.4062C128.404 71.2083 128.729 71.0599 129.094 70.9609C129.464 70.862 129.844 70.8125 130.234 70.8125C130.927 70.8125 131.547 70.9323 132.094 71.1719V72.4688C131.505 72.0833 130.828 71.8906 130.062 71.8906C129.823 71.8906 129.607 71.9193 129.414 71.9766C129.221 72.0286 129.055 72.1042 128.914 72.2031C128.779 72.3021 128.672 72.4219 128.594 72.5625C128.521 72.6979 128.484 72.849 128.484 73.0156C128.484 73.224 128.521 73.3984 128.594 73.5391C128.672 73.6797 128.784 73.8047 128.93 73.9141C129.076 74.0234 129.253 74.1224 129.461 74.2109C129.669 74.2995 129.906 74.3958 130.172 74.5C130.526 74.6354 130.844 74.776 131.125 74.9219C131.406 75.0625 131.646 75.224 131.844 75.4062C132.042 75.5833 132.193 75.7891 132.297 76.0234C132.406 76.2578 132.461 76.5365 132.461 76.8594C132.461 77.2552 132.372 77.599 132.195 77.8906C132.023 78.1823 131.792 78.4245 131.5 78.6172C131.208 78.8099 130.872 78.9531 130.492 79.0469C130.112 79.1406 129.714 79.1875 129.297 79.1875C128.474 79.1875 127.76 79.0286 127.156 78.7109ZM138.148 78.9219C137.846 79.0885 137.448 79.1719 136.953 79.1719C135.552 79.1719 134.852 78.3906 134.852 76.8281V72.0938H133.477V71H134.852V69.0469L136.133 68.6328V71H138.148V72.0938H136.133V76.6016C136.133 77.138 136.224 77.5208 136.406 77.75C136.589 77.9792 136.891 78.0938 137.312 78.0938C137.635 78.0938 137.914 78.0052 138.148 77.8281V78.9219ZM144.031 72.2969C143.807 72.125 143.484 72.0391 143.062 72.0391C142.516 72.0391 142.057 72.2969 141.688 72.8125C141.323 73.3281 141.141 74.0312 141.141 74.9219V79H139.859V71H141.141V72.6484H141.172C141.354 72.0859 141.633 71.6484 142.008 71.3359C142.383 71.0182 142.802 70.8594 143.266 70.8594C143.599 70.8594 143.854 70.8958 144.031 70.9688V72.2969ZM151.148 79H149.867V77.75H149.836C149.279 78.7083 148.458 79.1875 147.375 79.1875C146.578 79.1875 145.953 78.9766 145.5 78.5547C145.052 78.1328 144.828 77.5729 144.828 76.875C144.828 75.3802 145.708 74.5104 147.469 74.2656L149.867 73.9297C149.867 72.5703 149.318 71.8906 148.219 71.8906C147.255 71.8906 146.385 72.2188 145.609 72.875V71.5625C146.396 71.0625 147.302 70.8125 148.328 70.8125C150.208 70.8125 151.148 71.8073 151.148 73.7969V79ZM149.867 74.9531L147.938 75.2188C147.344 75.3021 146.896 75.4505 146.594 75.6641C146.292 75.8724 146.141 76.2448 146.141 76.7812C146.141 77.1719 146.279 77.4922 146.555 77.7422C146.836 77.987 147.208 78.1094 147.672 78.1094C148.307 78.1094 148.831 77.888 149.242 77.4453C149.659 76.9974 149.867 76.4323 149.867 75.75V74.9531ZM154.219 68.9688C153.99 68.9688 153.794 68.8906 153.633 68.7344C153.471 68.5781 153.391 68.3802 153.391 68.1406C153.391 67.901 153.471 67.7031 153.633 67.5469C153.794 67.3854 153.99 67.3047 154.219 67.3047C154.453 67.3047 154.651 67.3854 154.812 67.5469C154.979 67.7031 155.062 67.901 155.062 68.1406C155.062 68.3698 154.979 68.5651 154.812 68.7266C154.651 68.888 154.453 68.9688 154.219 68.9688ZM154.844 79H153.562V71H154.844V79ZM164.078 79H162.797V74.4375C162.797 72.7396 162.177 71.8906 160.938 71.8906C160.297 71.8906 159.766 72.1328 159.344 72.6172C158.927 73.0964 158.719 73.7031 158.719 74.4375V79H157.438V71H158.719V72.3281H158.75C159.354 71.3177 160.229 70.8125 161.375 70.8125C162.25 70.8125 162.919 71.0964 163.383 71.6641C163.846 72.2266 164.078 73.0417 164.078 74.1094V79ZM172.93 75.3203H167.281C167.302 76.2109 167.542 76.8984 168 77.3828C168.458 77.8672 169.089 78.1094 169.891 78.1094C170.792 78.1094 171.62 77.8125 172.375 77.2188V78.4219C171.672 78.9323 170.742 79.1875 169.586 79.1875C168.456 79.1875 167.568 78.8255 166.922 78.1016C166.276 77.3724 165.953 76.349 165.953 75.0312C165.953 73.7865 166.305 72.7734 167.008 71.9922C167.716 71.2057 168.594 70.8125 169.641 70.8125C170.688 70.8125 171.497 71.151 172.07 71.8281C172.643 72.5052 172.93 73.4453 172.93 74.6484V75.3203ZM171.617 74.2344C171.612 73.4948 171.432 72.9193 171.078 72.5078C170.729 72.0964 170.242 71.8906 169.617 71.8906C169.013 71.8906 168.5 72.1068 168.078 72.5391C167.656 72.9714 167.396 73.5365 167.297 74.2344H171.617ZM181.703 79H180.422V77.6406H180.391C179.797 78.6719 178.88 79.1875 177.641 79.1875C176.635 79.1875 175.831 78.8307 175.227 78.1172C174.628 77.3984 174.328 76.4219 174.328 75.1875C174.328 73.8646 174.661 72.8047 175.328 72.0078C175.995 71.2109 176.883 70.8125 177.992 70.8125C179.091 70.8125 179.891 71.2448 180.391 72.1094H180.422V67.1562H181.703V79ZM180.422 75.3828V74.2031C180.422 73.5573 180.208 73.0104 179.781 72.5625C179.354 72.1146 178.812 71.8906 178.156 71.8906C177.375 71.8906 176.76 72.1771 176.312 72.75C175.865 73.3229 175.641 74.1146 175.641 75.125C175.641 76.0469 175.854 76.776 176.281 77.3125C176.714 77.8438 177.292 78.1094 178.016 78.1094C178.729 78.1094 179.307 77.8516 179.75 77.3359C180.198 76.8203 180.422 76.1693 180.422 75.3828Z" fill="black"/>
<path d="M1.55592 49.9649C0.889042 50.3479 0.886074 51.3089 1.55058 51.6961L26.2055 66.0603C26.871 66.448 27.7065 65.9695 27.7089 65.1994L27.7971 36.624C27.7995 35.8539 26.9669 35.3702 26.2991 35.7538L1.55592 49.9649Z" fill="white"/>
</svg>
