<svg width="16" height="9" viewBox="0 0 16 9" fill="none" xmlns="http://www.w3.org/2000/svg">
<path d="M7.875 8.99998C7.68666 8.99998 7.50397 8.96563 7.32693 8.89692C7.14989 8.82822 7.00298 8.73662 6.88621 8.62212L0.388452 2.30152C0.129484 2.04961 0 1.729 0 1.33969C0 0.950379 0.129484 0.629769 0.388452 0.377861C0.647421 0.125953 0.977018 0 1.37724 0C1.77747 0 2.10706 0.125953 2.36603 0.377861L7.875 5.73663L13.384 0.377861C13.6429 0.125953 13.9725 0 14.3728 0C14.773 0 15.1026 0.125953 15.3615 0.377861C15.6205 0.629769 15.75 0.950379 15.75 1.33969C15.75 1.729 15.6205 2.04961 15.3615 2.30152L8.86379 8.62212C8.72253 8.75952 8.56951 8.85708 8.40471 8.91479C8.23991 8.9725 8.06334 9.0009 7.875 8.99998Z" fill="white"/>
</svg>
