<svg width="25" height="21" viewBox="0 0 25 21" fill="none" xmlns="http://www.w3.org/2000/svg">
<path d="M19.5605 0.255881C18.8672 0.529319 18.0762 1.27151 17.7246 1.97463C17.4707 2.47268 17.4414 2.64846 17.4316 3.41994C17.4316 4.4844 17.6855 5.12893 18.3887 5.83205C19.0527 6.48635 19.5996 6.72072 20.6055 6.76955C21.6895 6.81838 22.3828 6.57424 23.1055 5.89065C23.8379 5.19729 24.1602 4.43557 24.1602 3.41018C24.1602 2.70705 24.1211 2.53127 23.8477 1.97463C23.4863 1.25198 22.9102 0.675803 22.1875 0.343772C21.5137 0.0215063 20.2441 -0.0273218 19.5605 0.255881ZM21.6992 0.929709C22.4121 1.19338 22.8906 1.62307 23.1934 2.24807C23.6719 3.27346 23.4863 4.51369 22.7246 5.30471C22.2461 5.81252 21.7285 6.03713 20.918 6.08596C20.2734 6.12502 20.1562 6.10549 19.5898 5.82229C18.6914 5.38283 18.1836 4.65041 18.0957 3.66408C18.0176 2.84377 18.2715 2.17971 18.8867 1.55471C19.6875 0.753928 20.6641 0.539084 21.6992 0.929709Z" fill="#1AD079"/>
<path d="M20.5078 1.46682C20.5078 1.60354 20.4688 1.71096 20.4199 1.71096C20.2539 1.71096 19.834 2.21877 19.7754 2.49221C19.6777 2.93166 19.9512 3.33205 20.5371 3.62502C21.2305 3.97658 21.3477 4.18166 21.0254 4.49416C20.8594 4.66018 20.3027 4.66018 19.9023 4.49416C19.7559 4.43557 19.7266 4.47463 19.7266 4.71877C19.7266 4.99221 19.7656 5.03127 20.1465 5.09963C20.4688 5.16799 20.5664 5.22658 20.5859 5.40237C20.6348 5.72463 21.0938 5.7051 21.0938 5.38283C21.0938 5.22658 21.1621 5.11916 21.2988 5.0801C21.5234 5.00198 21.875 4.4844 21.875 4.22073C21.875 3.8301 21.5723 3.46877 20.9961 3.1758C20.3711 2.8633 20.2637 2.64846 20.5664 2.34573C20.6836 2.22854 20.8301 2.19924 21.0938 2.24807C21.416 2.30666 21.4648 2.28713 21.5137 2.09182C21.5918 1.79885 21.5234 1.71096 21.2305 1.71096C21.0449 1.71096 20.9961 1.66213 20.9961 1.46682C20.9961 1.27151 20.9473 1.22268 20.752 1.22268C20.5566 1.22268 20.5078 1.27151 20.5078 1.46682Z" fill="#1AD079"/>
<path d="M17.5293 8.11721C16.8848 8.63478 15.9961 9.33791 15.5566 9.68947L14.7461 10.3145L13.8477 9.93361C11.7383 9.03517 9.79492 8.25392 9.67773 8.25392C9.57031 8.25392 8.68164 8.86916 5.71289 11.0078C5.49805 11.1543 5.04883 11.4863 4.7168 11.7207C4.25781 12.0528 4.10156 12.2188 4.10156 12.3945C4.10156 12.5215 4.16992 12.6582 4.25781 12.6875C4.44336 12.7559 4.56055 12.6973 6.00586 11.6524C6.60156 11.2324 7.65625 10.4707 8.35938 9.96291C9.07227 9.4551 9.69727 9.03517 9.76562 9.03517C9.82422 9.03517 10.9961 9.50392 12.373 10.0703L14.8535 11.1055L15.2051 10.8613C16.4355 9.98244 19.1406 7.73635 19.1406 7.58986C19.1406 7.39455 18.9648 7.17971 18.8086 7.17971C18.75 7.17971 18.1738 7.60939 17.5293 8.11721Z" fill="#1AD079"/>
<path d="M18.8574 9.07422C18.7695 9.17188 18.7402 10.6562 18.75 14.7383V20.2656H18.0664H17.3828V16.623C17.3828 13.918 17.3535 12.9512 17.2656 12.8633C17.0996 12.6973 13.4668 12.6973 13.3008 12.8633C13.2129 12.9512 13.1836 13.918 13.1836 16.623V20.2656H12.5H11.8066L11.8164 16.3789C11.8262 14.25 11.7969 12.4238 11.7676 12.3262C11.6992 12.1797 11.5137 12.1602 9.76562 12.1602C8.0957 12.1602 7.82227 12.1797 7.77344 12.3164C7.74414 12.4043 7.71484 14.2207 7.71484 16.3691V20.2656H7.03125H6.34766V17.4922C6.34766 15.9688 6.31836 14.6504 6.28906 14.5625C6.24023 14.4258 5.9668 14.4062 4.30664 14.4062C2.93945 14.4062 2.35352 14.4355 2.26562 14.5234C2.17773 14.6113 2.14844 15.3926 2.14844 17.4531V20.2656H1.23047C0.722656 20.2656 0.244141 20.2949 0.15625 20.3242C-0.0488281 20.4023 -0.0488281 20.8125 0.15625 20.8906C0.351562 20.9688 24.6484 20.9688 24.8438 20.8906C25.0488 20.8125 25.0488 20.4023 24.8438 20.3242C24.7559 20.2949 24.2773 20.2656 23.7695 20.2656H22.8516V14.7188C22.8516 10.5391 22.8223 9.14258 22.7344 9.05469C22.5488 8.86914 19.0039 8.88867 18.8574 9.07422ZM22.168 14.9922V20.2656H20.8008H19.4336V14.9922V9.71875H20.8008H22.168V14.9922ZM11.1328 16.5547V20.2656H9.76562H8.39844V16.5547V12.8438H9.76562H11.1328V16.5547ZM16.6504 16.8477V20.2168L15.2637 20.2461L13.8672 20.2754V16.8477V13.4199L15.2637 13.4492L16.6504 13.4785V16.8477ZM5.66406 17.6777V20.2754L4.27734 20.2461L2.88086 20.2168L2.85156 17.6484L2.83203 15.0898H4.24805H5.66406V17.6777Z" fill="black"/>
</svg>
