<svg width="170" height="30" viewBox="0 0 170 30" fill="none" xmlns="http://www.w3.org/2000/svg">
<g clip-path="url(#clip0_270_575)">
<path d="M12.177 0.562498C10.0759 1.3125 7.2107 3.1875 5.87363 4.59375C3.43823 7.26562 2.24441 10.3125 2.00565 14.3906C1.91014 16.5469 1.91014 18.2812 2.0534 18.2812C2.19666 18.2812 3.19947 17.8125 4.25003 17.25C6.06464 16.3125 6.2079 16.0781 6.2079 14.2031C6.2079 8.67187 11.2697 4.17187 17.4776 4.17187C22.5394 4.17187 26.1686 6.84375 27.8877 11.8594C28.8427 14.625 28.8427 15.1875 27.9354 18.1406C27.2669 20.3906 23.5899 24.8437 22.4439 24.8437C22.1573 24.8437 21.9663 25.9219 21.9663 27.2344V29.5781L24.8315 28.0781C29.7023 25.5469 32.5674 20.7187 32.5674 15C32.6152 9.14062 29.4635 4.07812 24.0197 1.40625C22.2051 0.468748 20.868 0.234373 17.6686 0.140623C15.4242 0.0937481 12.9888 0.281248 12.177 0.562498Z" fill="white"/>
<path d="M15.7585 6.375C12.4635 7.59375 10.84 8.71875 9.78939 10.5C8.64332 12.375 8.1658 14.8125 8.97759 14.4375C9.1686 14.3438 10.9832 13.4062 13.0366 12.2812C16.4748 10.3594 16.8091 10.2656 18.3849 10.7812C20.9635 11.625 21.6798 13.125 21.9664 18L22.2051 22.2656L23.6855 20.7656C27.5057 16.9219 26.2641 9.60938 21.3933 7.35938C19.531 6.51562 16.7613 6.04688 15.7585 6.375Z" fill="white"/>
<path d="M152.475 8.29688C152.332 8.76562 151.042 12.0469 149.61 15.6094C148.225 19.1719 147.079 22.1719 147.079 22.3125C147.079 22.4062 147.843 22.5 148.75 22.5C150.183 22.5 150.517 22.3125 151.09 20.8594C151.806 19.2656 151.854 19.2188 154.671 19.2188C157.489 19.2188 157.537 19.2188 158.062 20.8594C158.587 22.3594 158.778 22.5 160.497 22.5C161.5 22.5 162.36 22.4531 162.36 22.3594C162.36 22.3125 161.5 20.0625 160.402 17.3438C159.351 14.625 158.062 11.2969 157.537 9.9375C156.582 7.54688 156.534 7.5 154.671 7.5C153.287 7.5 152.714 7.73438 152.475 8.29688ZM155.674 14.2031C156.343 16.3125 156.247 16.5 154.337 16.3125L152.905 16.1719L153.669 13.9219C154.48 11.4844 154.767 11.5312 155.674 14.2031Z" fill="white"/>
<path d="M164.747 15V22.5H166.419H168.09V15V7.5H166.419H164.747V15Z" fill="white"/>
<path d="M15.663 13.5469C12.177 15.3281 2.86523 20.7187 2.86523 20.9531C2.86523 21.0937 3.29501 21.9375 3.86804 22.7812L4.8231 24.375L7.54501 22.9219C9.02535 22.0781 10.6012 21.1875 10.9832 20.9062C11.604 20.4375 10.4579 22.5469 8.73883 25.0781C8.40456 25.5937 8.11804 26.2969 8.11804 26.7187C8.11804 27.5156 10.84 29.2031 11.5085 28.7812C11.7473 28.6406 12.5591 27.4219 13.2753 26.1094L14.5647 23.6719L14.8034 26.7187L15.0422 29.7656L17.3343 29.9062L19.5787 30.0469V22.7812C19.5787 13.1719 19.0057 11.8125 15.663 13.5469Z" fill="white"/>
<path d="M46.9172 8.60658C46.0099 8.76559 44.6728 9.24263 43.9565 9.67992C40.1363 11.9856 40.0886 18.3462 43.9088 20.4133C46.5829 21.8842 53.1728 21.9637 53.1728 20.5326C53.1728 18.9822 52.7431 18.7835 50.0689 18.9027C47.8245 19.022 47.347 18.9027 46.2964 18.0679C44.1476 16.279 44.0998 14.1323 46.0577 12.0651C47.0605 11.0315 47.2992 10.952 49.8779 11.111C52.5043 11.2701 52.6476 11.2303 52.8386 10.2762C52.9818 9.71967 52.9341 9.12337 52.7908 9.00411C52.2178 8.52707 48.6841 8.3283 46.9172 8.60658Z" fill="white"/>
<path d="M57.3273 14.6091C55.8469 17.8689 54.6053 20.7311 54.6053 20.9697C54.6053 21.1684 55.3694 21.3672 56.2767 21.3672C57.7093 21.3672 58.0435 21.2082 58.6166 19.9758C59.3329 18.6242 59.3806 18.5844 62.1503 18.5844C64.92 18.5844 64.9677 18.6242 65.3975 19.8566C65.8273 21.0492 66.066 21.1684 67.8806 21.2877C68.9789 21.3672 69.8862 21.3672 69.8862 21.2877C69.8862 21.2082 68.7879 18.823 67.4509 16.0005C66.1138 13.1382 64.8244 10.3555 64.5379 9.71943C64.1082 8.8051 63.8216 8.64609 62.0548 8.64609H60.0969L57.3273 14.6091ZM63.3919 15.2849C63.7261 16.1197 63.5829 16.1992 62.007 16.1992C60.8132 16.1992 60.3357 16.0402 60.5267 15.6824C60.6222 15.4439 61.0042 14.4898 61.3385 13.655L61.9593 12.1046L62.5323 13.2575C62.8188 13.8935 63.2486 14.8079 63.3919 15.2849Z" fill="white"/>
<path d="M69.4088 9.83869C69.4088 10.9518 69.5043 11.0313 71.3189 11.0313H73.229V16.1992V21.3672H75.1392H77.0493V16.1992V11.0313H79.1981C81.2515 11.0313 81.347 10.9915 81.347 9.83869V8.64609H75.3779H69.4088V9.83869Z" fill="white"/>
<path d="M84.3555 12.9395C83.2571 15.2849 81.9201 18.1472 81.3948 19.2603L80.392 21.3672H82.2543C83.9734 21.3672 84.2122 21.2479 84.7375 19.9758C85.3583 18.5844 85.406 18.5844 88.1279 18.5844C90.8498 18.5844 90.8976 18.6242 91.5661 19.9758C92.2347 21.2479 92.4257 21.3672 94.288 21.3672C95.6729 21.3672 96.1981 21.2082 96.0071 20.8504C95.8639 20.6119 94.5268 17.7496 92.9987 14.4898L90.2768 8.64609H88.3189H86.3611L84.3555 12.9395ZM89.465 15.0861C89.847 16.1595 89.7993 16.1992 88.2234 16.1992C87.3161 16.1992 86.5998 16.1595 86.5998 16.08C86.5998 16.0005 86.9341 15.0861 87.4116 14.0128C88.2712 11.9059 88.3189 11.9456 89.465 15.0861Z" fill="white"/>
<path d="M98.538 15.0066V21.3672H103.313H108.089V20.1746V18.982H105.223H102.358V13.814V8.64609H100.448H98.538V15.0066Z" fill="white"/>
<path d="M106.656 8.84486C106.656 8.92436 107.85 10.6338 109.282 12.6214C111.766 16.0005 111.909 16.398 111.909 18.7832V21.3672H113.819H115.729V18.7832C115.729 16.7558 115.968 15.8415 116.827 14.6886C117.448 13.8935 118.642 12.1841 119.502 10.912L121.03 8.64609H119.119C117.305 8.64609 117.162 8.7256 115.586 11.071L113.914 13.496L112.339 11.071C110.763 8.68584 110.667 8.64609 108.709 8.64609C107.563 8.64609 106.656 8.7256 106.656 8.84486Z" fill="white"/>
<path d="M122.892 9.83869V11.0313H126.044H129.148L125.805 15.1259C123.656 17.7099 122.414 19.5783 122.414 20.2938V21.3672H127.906H133.398V20.1746V19.0217L130.055 18.9025L126.712 18.7832L130.055 14.8476C132.252 12.2239 133.398 10.5145 133.398 9.75919V8.64609H128.145H122.892V9.83869Z" fill="white"/>
<path d="M136.74 15.0066V21.3672H141.277H145.813V20.1746V18.982H142.948H140.083V17.5906V16.1992H142.709H145.336V14.8079V13.4165H142.709C140.131 13.4165 140.083 13.4165 140.083 12.2239V11.0313H142.948H145.813V9.83869V8.64609H141.277H136.74V15.0066Z" fill="white"/>
</g>
<defs>
<clipPath id="clip0_270_575">
<rect width="170" height="30" fill="white"/>
</clipPath>
</defs>
</svg>
