<svg width="6" height="10" viewBox="0 0 6 10" fill="none" xmlns="http://www.w3.org/2000/svg">
<path d="M5.75073 7.75008V6.37508C5.75073 6.01041 5.60587 5.66067 5.348 5.40281C5.09014 5.14495 4.74041 5.00008 4.37573 5.00008C4.74041 5.00008 5.09014 4.85522 5.348 4.59735C5.60587 4.33949 5.75073 3.98975 5.75073 3.62508V2.25008C5.75073 1.76385 5.55758 1.29754 5.21376 0.953719C4.86994 0.609902 4.40363 0.416748 3.9174 0.416748H0.250732V2.25008H3.9174V4.08341H2.08407V5.91675H3.9174V7.75008H0.250732V9.58341H3.9174C4.40363 9.58341 4.86994 9.39026 5.21376 9.04644C5.55758 8.70263 5.75073 8.23631 5.75073 7.75008Z" fill="white"/>
</svg>
