<svg width="59" height="19" viewBox="0 0 59 19" fill="none" xmlns="http://www.w3.org/2000/svg">
<rect y="5.33374" width="58" height="13" rx="2.95874" transform="rotate(-5.27643 0 5.33374)" fill="white"/>
<path d="M7.255 13.2455C6.52372 13.313 5.91525 13.1262 5.42958 12.685C4.94631 12.2436 4.66902 11.6369 4.59773 10.8649C4.52111 10.0353 4.68418 9.35286 5.08692 8.81754C5.48966 8.28222 6.07705 7.97891 6.84908 7.90761C7.56118 7.84185 8.15635 8.02869 8.63461 8.46814C9.11526 8.90736 9.39135 9.51419 9.46287 10.2886C9.54059 11.1302 9.37906 11.8161 8.97827 12.3464C8.57748 12.8767 8.00306 13.1764 7.255 13.2455ZM6.85641 8.45826C6.31455 8.5083 5.89263 8.74434 5.59066 9.16637C5.28869 9.58841 5.16704 10.1171 5.22572 10.7525C5.28439 11.3879 5.49591 11.8846 5.86025 12.2427C6.22677 12.5981 6.67497 12.7514 7.20485 12.7024C7.77069 12.6502 8.1996 12.4244 8.49157 12.025C8.78355 11.6257 8.89887 11.0939 8.83754 10.4298C8.77465 9.74888 8.5678 9.23721 8.217 8.89481C7.86619 8.5524 7.41266 8.40689 6.85641 8.45826ZM13.1971 8.89553L12.0699 12.7138L11.4908 12.7673L9.7553 9.21338L10.4027 9.1536L11.5848 11.743C11.6725 11.9332 11.7315 12.1006 11.7618 12.2453L11.7762 12.244C11.7831 12.0572 11.8061 11.887 11.8451 11.7335L12.5749 8.95299L13.1971 8.89553ZM16.9772 10.5522L14.377 10.7924C14.4244 11.2015 14.5639 11.5078 14.7955 11.7113C15.0271 11.9148 15.3275 11.9994 15.6968 11.9653C16.1115 11.927 16.4801 11.7552 16.8026 11.4497L16.8537 12.0036C16.5517 12.2684 16.1346 12.4255 15.6023 12.4746C15.082 12.5227 14.6579 12.3938 14.3298 12.088C14.0015 11.7798 13.8093 11.3223 13.7533 10.7158C13.7004 10.1427 13.8191 9.66143 14.1096 9.2719C14.4022 8.87974 14.7895 8.66141 15.2715 8.6169C15.7534 8.5724 16.1406 8.69381 16.4331 8.98115C16.7256 9.26848 16.8975 9.68907 16.9486 10.2429L16.9772 10.5522ZM16.3268 10.1081C16.293 9.76787 16.1858 9.51057 16.0053 9.33622C15.8271 9.16164 15.5942 9.08764 15.3065 9.11421C15.0284 9.13989 14.8014 9.26121 14.6256 9.47814C14.4497 9.69508 14.3539 9.9663 14.338 10.2918L16.3268 10.1081ZM19.6647 8.90033C19.5543 8.83073 19.402 8.8049 19.2078 8.82283C18.956 8.84608 18.756 8.98425 18.6077 9.23734C18.4617 9.4902 18.4077 9.82163 18.4456 10.2316L18.619 12.109L18.0292 12.1634L17.689 8.48069L18.2789 8.42621L18.3489 9.18506L18.3633 9.18373C18.4233 8.91704 18.533 8.70379 18.6923 8.54399C18.8515 8.3818 19.0377 8.29084 19.2511 8.27114C19.4046 8.25697 19.5236 8.2629 19.6082 8.28894L19.6647 8.90033ZM23.1448 7.97683L22.0176 11.7951L21.4386 11.8486L19.703 8.29469L20.3504 8.2349L21.5326 10.8243C21.6203 11.0145 21.6793 11.1819 21.7096 11.3266L21.7239 11.3253C21.7309 11.1385 21.7538 10.9683 21.7929 10.8148L22.5227 8.03429L23.1448 7.97683ZM23.9972 6.95507C23.8917 6.96481 23.7984 6.93715 23.7175 6.87209C23.6365 6.80702 23.5909 6.71934 23.5807 6.60905C23.5705 6.49876 23.5993 6.40422 23.667 6.32543C23.7344 6.24424 23.8209 6.19877 23.9264 6.18903C24.0343 6.17906 24.1288 6.20781 24.21 6.27527C24.2934 6.34012 24.3402 6.42768 24.3504 6.53797C24.3601 6.64347 24.33 6.73692 24.2602 6.81834C24.1927 6.89953 24.105 6.9451 23.9972 6.95507ZM24.7113 11.5463L24.1215 11.6008L23.7814 7.91804L24.3712 7.86357L24.7113 11.5463ZM28.7088 9.46878L26.1086 9.70892C26.156 10.118 26.2955 10.4243 26.5271 10.6278C26.7587 10.8313 27.0591 10.916 27.4283 10.8819C27.8431 10.8436 28.2117 10.6717 28.5341 10.3663L28.5853 10.9201C28.2833 11.185 27.8662 11.342 27.3339 11.3912C26.8136 11.4392 26.3894 11.3103 26.0614 11.0045C25.7331 10.6963 25.5409 10.2389 25.4849 9.63231C25.432 9.05928 25.5507 8.578 25.8412 8.18846C26.1338 7.7963 26.5211 7.57797 27.003 7.53347C27.485 7.48896 27.8722 7.61037 28.1647 7.89771C28.4572 8.18504 28.6291 8.60563 28.6802 9.15949L28.7088 9.46878ZM28.0584 9.02467C28.0246 8.68443 27.9174 8.42713 27.7369 8.25278C27.5587 8.0782 27.3258 8.0042 27.0381 8.03077C26.76 8.05646 26.533 8.17777 26.3572 8.39471C26.1813 8.61164 26.0855 8.88286 26.0696 9.20835L28.0584 9.02467ZM34.06 6.96879L33.296 10.7535L32.6846 10.81L31.6823 8.24386C31.6443 8.14582 31.6146 8.0337 31.5932 7.90752L31.5788 7.90884C31.5796 7.99582 31.5647 8.10964 31.5342 8.25029L30.9547 10.9697L30.3649 11.0242L28.9099 7.44441L29.5285 7.38728L30.5467 10.0861C30.5784 10.1678 30.6054 10.2766 30.6276 10.4123L30.6564 10.4097C30.6538 10.3035 30.665 10.1889 30.6899 10.0656L31.2836 7.2252L31.823 7.17538L32.8419 9.88141C32.8741 9.96791 32.9022 10.0765 32.9264 10.2073L32.9552 10.2046C32.9513 10.1107 32.9615 9.99852 32.9858 9.86813L33.4774 7.02259L34.06 6.96879Z" fill="black"/>
</svg>
