<svg width="170" height="30" viewBox="0 0 170 30" fill="none" xmlns="http://www.w3.org/2000/svg">
<g clip-path="url(#clip0_270_32)">
<path d="M12.177 0.5625C10.0759 1.3125 7.2107 3.1875 5.87363 4.59375C3.43823 7.26562 2.24441 10.3125 2.00565 14.3906C1.91014 16.5469 1.91014 18.2812 2.0534 18.2812C2.19666 18.2812 3.19947 17.8125 4.25003 17.25C6.06464 16.3125 6.2079 16.0781 6.2079 14.2031C6.2079 8.67188 11.2697 4.17188 17.4776 4.17188C22.5394 4.17188 26.1686 6.84375 27.8877 11.8594C28.8427 14.625 28.8427 15.1875 27.9354 18.1406C27.2669 20.3906 23.5899 24.8438 22.4439 24.8438C22.1573 24.8438 21.9663 25.9219 21.9663 27.2344V29.5781L24.8315 28.0781C29.7023 25.5469 32.5674 20.7188 32.5674 15C32.6152 9.14062 29.4635 4.07812 24.0197 1.40625C22.2051 0.46875 20.868 0.234375 17.6686 0.140625C15.4242 0.09375 12.9888 0.28125 12.177 0.5625Z" fill="#1AD079"/>
<path d="M15.7585 6.375C12.4635 7.59375 10.84 8.71875 9.78939 10.5C8.64332 12.375 8.1658 14.8125 8.97759 14.4375C9.1686 14.3438 10.9832 13.4062 13.0366 12.2812C16.4748 10.3594 16.8091 10.2656 18.3849 10.7812C20.9635 11.625 21.6798 13.125 21.9664 18L22.2051 22.2656L23.6855 20.7656C27.5057 16.9219 26.2641 9.60938 21.3933 7.35938C19.531 6.51562 16.7613 6.04688 15.7585 6.375Z" fill="#1AD079"/>
<path d="M152.475 8.29688C152.332 8.76562 151.042 12.0469 149.61 15.6094C148.225 19.1719 147.079 22.1719 147.079 22.3125C147.079 22.4062 147.843 22.5 148.75 22.5C150.183 22.5 150.517 22.3125 151.09 20.8594C151.806 19.2656 151.854 19.2188 154.671 19.2188C157.489 19.2188 157.537 19.2188 158.062 20.8594C158.587 22.3594 158.778 22.5 160.497 22.5C161.5 22.5 162.36 22.4531 162.36 22.3594C162.36 22.3125 161.5 20.0625 160.402 17.3438C159.351 14.625 158.062 11.2969 157.537 9.9375C156.582 7.54688 156.534 7.5 154.671 7.5C153.287 7.5 152.714 7.73438 152.475 8.29688ZM155.674 14.2031C156.343 16.3125 156.247 16.5 154.337 16.3125L152.905 16.1719L153.669 13.9219C154.48 11.4844 154.767 11.5312 155.674 14.2031Z" fill="#1AD079"/>
<path d="M164.747 15V22.5H166.419H168.09V15V7.5H166.419H164.747V15Z" fill="#1AD079"/>
<path d="M15.663 13.5469C12.177 15.3281 2.86523 20.7187 2.86523 20.9531C2.86523 21.0937 3.29501 21.9375 3.86804 22.7812L4.8231 24.375L7.54501 22.9219C9.02535 22.0781 10.6012 21.1875 10.9832 20.9062C11.604 20.4375 10.4579 22.5469 8.73883 25.0781C8.40456 25.5937 8.11804 26.2969 8.11804 26.7187C8.11804 27.5156 10.84 29.2031 11.5085 28.7812C11.7473 28.6406 12.5591 27.4219 13.2753 26.1094L14.5647 23.6719L14.8034 26.7187L15.0422 29.7656L17.3343 29.9062L19.5787 30.0469V22.7812C19.5787 13.1719 19.0057 11.8125 15.663 13.5469Z" fill="#1AD079"/>
<path d="M43.5746 7.64998C42.6673 7.83748 41.3302 8.39998 40.6139 8.91561C36.7937 11.6344 36.7459 19.1344 40.5661 21.5719C43.2403 23.3062 49.8302 23.4 49.8302 21.7125C49.8302 19.8844 49.4004 19.65 46.7262 19.7906C44.4819 19.9312 44.0043 19.7906 42.9538 18.8062C40.8049 16.6969 40.7571 14.1656 42.715 11.7281C43.7178 10.5094 43.9566 10.4156 46.5352 10.6031C49.1616 10.7906 49.3049 10.7437 49.4959 9.61873C49.6392 8.96248 49.5914 8.25936 49.4482 8.11873C48.8751 7.55623 45.3414 7.32186 43.5746 7.64998Z" fill="#030403"/>
<path d="M53.9847 14.7281C52.5044 18.5718 51.2628 21.9468 51.2628 22.2281C51.2628 22.4625 52.0269 22.6968 52.9342 22.6968C54.3668 22.6968 54.701 22.5093 55.2741 21.0562C55.9903 19.4625 56.0381 19.4156 58.8078 19.4156C61.5774 19.4156 61.6252 19.4625 62.055 20.9156C62.4847 22.3218 62.7235 22.4625 64.5381 22.6031C65.6364 22.6968 66.5437 22.6968 66.5437 22.6031C66.5437 22.5093 65.4454 19.6968 64.1083 16.3687C62.7712 12.9937 61.4819 9.71246 61.1954 8.96246C60.7656 7.88434 60.4791 7.69684 58.7123 7.69684H56.7544L53.9847 14.7281ZM60.0493 15.525C60.3836 16.5093 60.2403 16.6031 58.6645 16.6031C57.4707 16.6031 56.9932 16.4156 57.1842 15.9937C57.2797 15.7125 57.6617 14.5875 57.996 13.6031L58.6168 11.775L59.1898 13.1343C59.4763 13.8843 59.9061 14.9625 60.0493 15.525Z" fill="#030403"/>
<path d="M66.0662 9.10309C66.0662 10.4156 66.1617 10.5093 67.9763 10.5093H69.8864V16.6031V22.6968H71.7965H73.7066V16.6031V10.5093H75.8555C77.9089 10.5093 78.0044 10.4625 78.0044 9.10309V7.69684H72.0353H66.0662V9.10309Z" fill="#030403"/>
<path d="M81.0128 12.7593C79.9145 15.525 78.5774 18.9 78.0521 20.2125L77.0493 22.6968H78.9117C80.6308 22.6968 80.8695 22.5562 81.3948 21.0562C82.0156 19.4156 82.0634 19.4156 84.7853 19.4156C87.5072 19.4156 87.5549 19.4625 88.2235 21.0562C88.892 22.5562 89.083 22.6968 90.9454 22.6968C92.3302 22.6968 92.8555 22.5093 92.6645 22.0875C92.5212 21.8062 91.1841 18.4312 89.6561 14.5875L86.9341 7.69684H84.9763H83.0184L81.0128 12.7593ZM86.1224 15.2906C86.5044 16.5562 86.4566 16.6031 84.8808 16.6031C83.9735 16.6031 83.2572 16.5562 83.2572 16.4625C83.2572 16.3687 83.5915 15.2906 84.069 14.025C84.9285 11.5406 84.9763 11.5875 86.1224 15.2906Z" fill="#030403"/>
<path d="M95.1953 15.1968V22.6968H99.9706H104.746V21.2906V19.8843H101.881H99.0155V13.7906V7.69684H97.1054H95.1953V15.1968Z" fill="#030403"/>
<path d="M103.313 7.93121C103.313 8.02496 104.507 10.0406 105.94 12.3843C108.423 16.3687 108.566 16.8375 108.566 19.65V22.6968H110.476H112.386V19.65C112.386 17.2593 112.625 16.1812 113.485 14.8218C114.105 13.8843 115.299 11.8687 116.159 10.3687L117.687 7.69684H115.777C113.962 7.69684 113.819 7.79059 112.243 10.5562L110.572 13.4156L108.996 10.5562C107.42 7.74371 107.325 7.69684 105.367 7.69684C104.221 7.69684 103.313 7.79059 103.313 7.93121Z" fill="#030403"/>
<path d="M119.549 9.10309V10.5093H122.701H125.805L122.462 15.3375C120.313 18.3843 119.072 20.5875 119.072 21.4312V22.6968H124.563H130.055V21.2906V19.9312L126.712 19.7906L123.37 19.65L126.712 15.0093C128.909 11.9156 130.055 9.89996 130.055 9.00934V7.69684H124.802H119.549V9.10309Z" fill="#030403"/>
<path d="M133.398 15.1968V22.6968H137.934H142.471V21.2906V19.8843H139.605H136.74V18.2437V16.6031H139.367H141.993V14.9625V13.3218H139.367C136.788 13.3218 136.74 13.3218 136.74 11.9156V10.5093H139.605H142.471V9.10309V7.69684H137.934H133.398V15.1968Z" fill="#030403"/>
</g>
<defs>
<clipPath id="clip0_270_32">
<rect width="170" height="30" fill="white"/>
</clipPath>
</defs>
</svg>
