<svg width="69" height="74" viewBox="0 0 69 74" fill="none" xmlns="http://www.w3.org/2000/svg">
<g clip-path="url(#clip0_270_201)">
<rect x="6.43909" width="62" height="68" rx="3.34843" transform="rotate(5.43363 6.43909 0)" fill="white"/>
<path d="M14.7449 21.5325L14.339 21.4939L14.5614 19.1559C14.579 18.9711 14.6118 18.7462 14.66 18.481L14.6502 18.4801C14.5964 18.6335 14.5509 18.7428 14.5136 18.808L13.0679 21.373L12.8686 21.3541L11.9331 18.5821C11.9064 18.5011 11.8829 18.3787 11.8625 18.2149L11.8528 18.214C11.8525 18.3546 11.8373 18.5828 11.8073 18.8988L11.5854 21.232L11.1916 21.1946L11.5231 17.7093L12.0627 17.7606L12.9009 20.2928C12.9658 20.487 13.006 20.6314 13.0216 20.7261L13.0361 20.7275C13.124 20.5429 13.1935 20.4056 13.2445 20.3157L14.566 17.9988L15.0764 18.0473L14.7449 21.5325ZM16.1112 18.5136C16.0399 18.5068 15.9814 18.4767 15.9358 18.4233C15.8902 18.3699 15.8709 18.306 15.878 18.2315C15.8851 18.1569 15.9161 18.0977 15.9709 18.0539C16.026 18.0085 16.0891 17.9891 16.1604 17.9959C16.2333 18.0028 16.2925 18.0338 16.3379 18.0888C16.3852 18.1424 16.4052 18.2064 16.3981 18.2809C16.3914 18.3522 16.3597 18.4105 16.303 18.4558C16.248 18.5013 16.1841 18.5205 16.1112 18.5136ZM16.0087 21.6528L15.6102 21.6148L15.8469 19.1261L16.2455 19.164L16.0087 21.6528ZM18.8815 21.926L18.3225 21.8728L17.3377 20.5726L17.328 20.5717L17.2142 21.7674L16.8157 21.7295L17.1661 18.045L17.5647 18.0829L17.3425 20.4185L17.3523 20.4195L18.5058 19.379L19.0283 19.4287L17.7597 20.5195L18.8815 21.926ZM21.399 21.0104L19.6418 20.8432C19.6219 21.1209 19.6761 21.3419 19.8043 21.5061C19.9326 21.6704 20.1215 21.7644 20.371 21.7881C20.6513 21.8148 20.9177 21.7469 21.1702 21.5846L21.1346 21.9589C20.9008 22.0968 20.604 22.1487 20.2443 22.1145C19.8927 22.0811 19.6272 21.9422 19.4477 21.6978C19.2683 21.4519 19.1982 21.1239 19.2371 20.714C19.274 20.3268 19.4133 20.022 19.6552 19.7998C19.8988 19.5761 20.1835 19.4797 20.5091 19.5107C20.8348 19.5417 21.0768 19.671 21.235 19.8986C21.3932 20.1261 21.4545 20.4271 21.4189 20.8014L21.399 21.0104ZM21.0228 20.6337C21.0431 20.4035 21.0042 20.2191 20.9062 20.0806C20.8098 19.9423 20.6644 19.8639 20.47 19.8454C20.282 19.8275 20.116 19.8796 19.972 20.0016C19.8279 20.1236 19.7302 20.2917 19.6788 20.5059L21.0228 20.6337ZM25.8131 22.5854L25.327 22.5391L24.8367 21.5066C24.7918 21.4108 24.7473 21.3289 24.7031 21.2609C24.659 21.1913 24.6122 21.1337 24.5626 21.0881C24.5146 21.0427 24.4606 21.0081 24.4008 20.9845C24.3427 20.9593 24.2755 20.9431 24.1994 20.9359L23.864 20.904L23.7229 22.3865L23.3146 22.3477L23.6462 18.8625L24.6864 18.9614C24.8387 18.9759 24.977 19.0087 25.1013 19.0597C25.2274 19.1093 25.3337 19.1775 25.4203 19.2642C25.5085 19.3511 25.5738 19.4554 25.6161 19.5771C25.6587 19.6972 25.6725 19.8351 25.6577 19.9906C25.6462 20.1121 25.6169 20.2222 25.5699 20.3207C25.5247 20.4178 25.4643 20.5028 25.3887 20.5757C25.3147 20.6488 25.2273 20.7091 25.1263 20.7567C25.027 20.8029 24.9168 20.8357 24.7956 20.8553L24.7947 20.865C24.8506 20.8964 24.8979 20.9312 24.9368 20.9692C24.9775 21.0058 25.0151 21.0486 25.0497 21.0977C25.0843 21.1468 25.1174 21.2022 25.1491 21.2641C25.1826 21.3245 25.2192 21.395 25.259 21.4756L25.8131 22.5854ZM24.0193 19.2707L23.8991 20.5345L24.4533 20.5873C24.5553 20.597 24.6508 20.5905 24.7396 20.5679C24.83 20.5454 24.9095 20.5088 24.9781 20.4581C25.0468 20.4058 25.103 20.34 25.1465 20.2608C25.1901 20.1799 25.2169 20.0877 25.2267 19.984C25.2445 19.7976 25.1975 19.6468 25.0858 19.5316C24.976 19.4148 24.8068 19.3456 24.5783 19.3239L24.0193 19.2707ZM27.1297 22.7694C26.7619 22.7345 26.4789 22.5906 26.2805 22.338C26.084 22.0838 26.004 21.7648 26.0405 21.3808C26.0803 20.9627 26.2256 20.6471 26.4764 20.4339C26.7272 20.2207 27.047 20.1326 27.4359 20.1696C27.8069 20.2049 28.0853 20.3466 28.271 20.5948C28.4582 20.8431 28.5326 21.1698 28.4941 21.5749C28.4563 21.9719 28.3134 22.2796 28.0654 22.4979C27.8192 22.7149 27.5073 22.8054 27.1297 22.7694ZM27.3748 20.5022C27.1188 20.4778 26.908 20.5461 26.7422 20.7069C26.5767 20.8661 26.4793 21.0988 26.4502 21.405C26.4222 21.6999 26.4754 21.9396 26.6099 22.1241C26.7444 22.3085 26.938 22.4128 27.1908 22.4368C27.4484 22.4613 27.654 22.3967 27.8076 22.2429C27.9629 22.0893 28.0551 21.8585 28.0844 21.5507C28.114 21.2396 28.0671 20.9931 27.9438 20.8114C27.8221 20.6298 27.6324 20.5267 27.3748 20.5022ZM30.7189 22.9367C30.5168 23.0336 30.2844 23.0695 30.022 23.0446C29.6671 23.0108 29.3913 22.8685 29.1944 22.6176C28.9993 22.3652 28.9193 22.0552 28.9543 21.6874C28.9933 21.2774 29.142 20.9597 29.4005 20.7341C29.6592 20.5069 29.9846 20.412 30.3767 20.4493C30.5955 20.4701 30.7844 20.529 30.9436 20.6258L30.9048 21.0342C30.7324 20.887 30.5409 20.8033 30.3302 20.7833C30.0758 20.7591 29.8581 20.8308 29.6771 20.9983C29.4978 21.1644 29.394 21.3957 29.3658 21.6922C29.3381 21.9838 29.3923 22.2211 29.5286 22.4041C29.6665 22.5873 29.8643 22.6911 30.1219 22.7156C30.339 22.7363 30.55 22.6836 30.755 22.5576L30.7189 22.9367ZM33.3766 23.3048L32.8176 23.2516L31.8328 21.9514L31.8231 21.9504L31.7094 23.1462L31.3108 23.1083L31.6612 19.4237L32.0598 19.4617L31.8377 21.7973L31.8474 21.7982L33.0009 20.7578L33.5234 20.8075L32.2548 21.8983L33.3766 23.3048ZM37.1569 21.1531L36.1741 23.5709L35.7609 23.5316L35.4175 21.7013C35.4046 21.6314 35.3989 21.5532 35.4006 21.4667L35.3909 21.4658C35.3805 21.5236 35.3563 21.5974 35.3183 21.687L34.5919 23.4204L34.1933 23.3825L33.6766 20.822L34.0946 20.8618L34.4318 22.7822C34.4426 22.8405 34.4469 22.9161 34.4446 23.0091L34.464 23.0109C34.4757 22.9401 34.4975 22.8653 34.5295 22.7866L35.2807 20.9746L35.6452 21.0093L35.982 22.9346C35.9925 22.9961 35.9976 23.0718 35.9972 23.1617L36.0166 23.1635C36.0259 23.1006 36.0467 23.0274 36.0792 22.9439L36.7632 21.1156L37.1569 21.1531ZM38.4167 23.8431C38.0489 23.8081 37.7658 23.6643 37.5675 23.4116C37.3709 23.1575 37.2909 22.8384 37.3275 22.4544C37.3672 22.0363 37.5125 21.7207 37.7633 21.5075C38.0141 21.2943 38.334 21.2062 38.7228 21.2432C39.0939 21.2785 39.3722 21.4202 39.5579 21.6684C39.7452 21.9167 39.8196 22.2435 39.781 22.6485C39.7433 23.0455 39.6004 23.3532 39.3524 23.5716C39.1061 23.7885 38.7942 23.879 38.4167 23.8431ZM38.6618 21.5758C38.4058 21.5515 38.1949 21.6197 38.0292 21.7805C37.8636 21.9397 37.7663 22.1724 37.7372 22.4786C37.7091 22.7735 37.7623 23.0132 37.8968 23.1977C38.0313 23.3821 38.225 23.4864 38.4777 23.5104C38.7354 23.5349 38.941 23.4703 39.0946 23.3165C39.2498 23.1629 39.3421 22.9321 39.3713 22.6243C39.4009 22.3132 39.3541 22.0667 39.2307 21.885C39.1091 21.7034 38.9194 21.6003 38.6618 21.5758ZM41.3332 24.1205C40.9654 24.0855 40.6823 23.9417 40.484 23.689C40.2875 23.4349 40.2075 23.1158 40.244 22.7318C40.2837 22.3138 40.429 21.9981 40.6798 21.7849C40.9306 21.5717 41.2505 21.4836 41.6394 21.5206C42.0104 21.5559 42.2888 21.6976 42.4744 21.9458C42.6617 22.1942 42.7361 22.5209 42.6976 22.9259C42.6598 23.3229 42.5169 23.6306 42.2689 23.849C42.0226 24.0659 41.7107 24.1564 41.3332 24.1205ZM41.5783 21.8532C41.3223 21.8289 41.1114 21.8971 40.9457 22.0579C40.7802 22.2171 40.6828 22.4498 40.6537 22.7561C40.6256 23.051 40.6789 23.2906 40.8134 23.4751C40.9479 23.6596 41.1415 23.7638 41.3943 23.7879C41.6519 23.8124 41.8575 23.7477 42.0111 23.5939C42.1663 23.4403 42.2586 23.2095 42.2879 22.9017C42.3175 22.5906 42.2706 22.3442 42.1473 22.1624C42.0256 21.9808 41.8359 21.8777 41.5783 21.8532ZM45.3392 24.4427L44.9407 24.4048L44.9809 23.9819L44.9712 23.9809C44.7559 24.2842 44.4555 24.4175 44.0699 24.3808C43.7572 24.351 43.5174 24.2162 43.3505 23.9764C43.1855 23.7351 43.1212 23.4224 43.1577 23.0384C43.1969 22.6268 43.3319 22.307 43.5629 22.0788C43.7939 21.8506 44.0819 21.7529 44.4271 21.7858C44.7689 21.8183 45.0049 21.9764 45.1348 22.2602L45.1446 22.2611L45.2911 20.7202L45.6897 20.7581L45.3392 24.4427ZM45.0477 23.2795L45.0826 22.9125C45.1017 22.7116 45.0515 22.5351 44.9319 22.3831C44.8122 22.2311 44.6504 22.1454 44.4462 22.126C44.2032 22.1029 44.0035 22.1738 43.8472 22.3388C43.6909 22.5038 43.5978 22.7434 43.5679 23.0578C43.5406 23.3446 43.5855 23.5777 43.7025 23.7573C43.8212 23.9353 43.9932 24.0351 44.2184 24.0565C44.4404 24.0776 44.6279 24.0145 44.7809 23.8672C44.9355 23.72 45.0244 23.5241 45.0477 23.2795Z" fill="black"/>
<path d="M10.4336 36.8638L10.3834 37.3912L10.0845 37.3628L10.1328 36.8548C9.77311 36.8206 9.48728 36.7231 9.27531 36.5623L9.32686 36.0203C9.41753 36.1156 9.54435 36.2004 9.70731 36.2748C9.87189 36.3493 10.0279 36.3936 10.1754 36.4076L10.2782 35.3261C9.91264 35.1131 9.68023 34.9267 9.58098 34.7668C9.48336 34.6071 9.44426 34.4252 9.46368 34.221C9.48665 33.9796 9.59233 33.7796 9.78072 33.6209C9.96927 33.4606 10.1973 33.3752 10.4648 33.3647L10.5064 32.9272L10.8054 32.9557L10.7647 33.3834C11.104 33.4255 11.3346 33.4932 11.4565 33.5866L11.4071 34.1067C11.2428 33.9602 11.0145 33.8682 10.7221 33.8306L10.6155 34.951C10.9563 35.1502 11.1849 35.3338 11.3013 35.5019C11.4178 35.6699 11.4667 35.8519 11.448 36.048C11.4254 36.2862 11.3246 36.4777 11.1457 36.6225C10.9668 36.7674 10.7294 36.8478 10.4336 36.8638ZM10.3298 34.7841L10.422 33.8143C10.2982 33.8271 10.1969 33.8698 10.118 33.9424C10.0392 34.015 9.99435 34.108 9.98356 34.2214C9.97215 34.3413 9.99199 34.4421 10.0431 34.5238C10.0942 34.6055 10.1897 34.6923 10.3298 34.7841ZM10.5647 35.4857L10.4757 36.4215C10.7567 36.3893 10.908 36.259 10.9298 36.0306C10.948 35.8394 10.8263 35.6578 10.5647 35.4857ZM13.4709 33.5771L13.132 37.1401L12.5681 37.0864L12.8414 34.2137C12.7324 34.2769 12.6162 34.3288 12.493 34.3694C12.3716 34.4085 12.2337 34.4404 12.0793 34.4649L12.1251 33.9837C12.222 33.9618 12.3158 33.9381 12.4065 33.9124C12.4973 33.8866 12.5868 33.8567 12.675 33.8226C12.7649 33.7887 12.8552 33.7498 12.9461 33.7062C13.0385 33.6626 13.134 33.6121 13.2327 33.5544L13.4709 33.5771ZM14.5896 36.6926L14.0975 37.8696L13.6746 37.8293L14.0573 36.642L14.5896 36.6926ZM17.2661 37.5333L15.0788 37.3253L15.1044 37.0555C15.1149 36.9453 15.1401 36.8439 15.18 36.7512C15.22 36.6569 15.2699 36.5701 15.3298 36.4908C15.3898 36.4098 15.4582 36.3354 15.535 36.2675C15.6119 36.198 15.6934 36.1322 15.7794 36.07C15.8655 36.0063 15.953 35.946 16.0418 35.889C16.1308 35.8304 16.2181 35.7717 16.3038 35.7128C16.3844 35.6567 16.4583 35.6016 16.5256 35.5475C16.593 35.4918 16.6517 35.4336 16.7016 35.373C16.7515 35.3123 16.792 35.2475 16.8231 35.1785C16.8543 35.1079 16.8739 35.0305 16.882 34.9463C16.8907 34.8539 16.8838 34.7723 16.8611 34.7015C16.8402 34.6292 16.8059 34.5679 16.7584 34.5176C16.7127 34.4658 16.656 34.4253 16.5885 34.396C16.5211 34.365 16.4461 34.3457 16.3635 34.3378C16.2209 34.3242 16.0727 34.3436 15.919 34.3961C15.7652 34.4485 15.614 34.5346 15.4652 34.6545L15.5168 34.1126C15.5932 34.0659 15.6697 34.0265 15.7463 33.9946C15.823 33.961 15.9015 33.935 15.9818 33.9164C16.0622 33.8963 16.1459 33.8838 16.233 33.879C16.3201 33.8742 16.4123 33.8765 16.5095 33.8857C16.6667 33.9007 16.8073 33.9353 16.9313 33.9896C17.0554 34.0423 17.159 34.1134 17.242 34.2031C17.3252 34.2911 17.3854 34.3974 17.4226 34.5219C17.4614 34.6466 17.4734 34.7867 17.4587 34.9423C17.4452 35.0832 17.4153 35.2087 17.3689 35.3187C17.3242 35.4273 17.2649 35.5271 17.1908 35.6182C17.1184 35.7094 17.0326 35.7944 16.9336 35.8733C16.8345 35.9521 16.7247 36.0324 16.6041 36.1142C16.5029 36.1814 16.4018 36.247 16.3009 36.3109C16.2018 36.3735 16.1116 36.436 16.0305 36.4986C15.9494 36.5595 15.8821 36.6226 15.8285 36.6878C15.7767 36.7516 15.7474 36.8183 15.7408 36.8879L15.7397 36.9001L17.3122 37.0497L17.2661 37.5333ZM20.3349 35.8755C20.3017 36.2239 20.2351 36.52 20.1351 36.7639C20.0367 37.008 19.9133 37.2047 19.765 37.3541C19.6184 37.5037 19.4522 37.6088 19.2666 37.6697C19.0828 37.729 18.8888 37.749 18.6846 37.7296C18.6182 37.7232 18.5513 37.7128 18.484 37.6982C18.4184 37.6838 18.3554 37.6672 18.295 37.6484C18.2363 37.6297 18.1825 37.6107 18.1337 37.5913C18.0866 37.5705 18.0476 37.5512 18.0166 37.5336L18.0649 37.0256C18.0969 37.0499 18.1369 37.0758 18.185 37.1033C18.2332 37.1291 18.2857 37.1537 18.3423 37.1771C18.4007 37.199 18.461 37.2186 18.5231 37.236C18.587 37.2519 18.6489 37.2627 18.7089 37.2684C18.8466 37.2815 18.9739 37.2666 19.0908 37.2238C19.2093 37.1811 19.3132 37.1108 19.4026 37.0131C19.4921 36.9153 19.5652 36.7907 19.6221 36.6391C19.6808 36.4861 19.72 36.3067 19.7396 36.1009L19.7298 36.1C19.6957 36.1491 19.6521 36.1948 19.5991 36.2372C19.5478 36.2781 19.4896 36.3134 19.4247 36.3432C19.3599 36.3714 19.2884 36.3924 19.2102 36.4062C19.1337 36.4202 19.0525 36.4231 18.9666 36.4149C18.8208 36.401 18.6871 36.363 18.5655 36.3007C18.4456 36.237 18.344 36.1538 18.2606 36.051C18.1772 35.9482 18.1151 35.8271 18.0744 35.6875C18.0354 35.5481 18.0237 35.3957 18.0394 35.2305C18.0567 35.049 18.1022 34.8882 18.1761 34.7481C18.25 34.6063 18.3445 34.4894 18.4596 34.3974C18.5748 34.3037 18.7063 34.2361 18.8541 34.1946C19.0021 34.1514 19.1595 34.1378 19.3264 34.1537C19.4836 34.1686 19.629 34.2127 19.7626 34.2859C19.898 34.3576 20.0122 34.4633 20.1052 34.603C20.2 34.7411 20.2684 34.9152 20.3106 35.1252C20.3544 35.3354 20.3625 35.5855 20.3349 35.8755ZM19.7821 35.4477C19.7932 35.3311 19.7879 35.2235 19.7662 35.125C19.7461 35.0266 19.7126 34.9408 19.6656 34.8677C19.6186 34.7946 19.5596 34.7358 19.4886 34.6915C19.4192 34.6473 19.3408 34.621 19.2533 34.6127C19.1755 34.6053 19.0994 34.6144 19.0251 34.64C18.9525 34.6642 18.8867 34.7029 18.8276 34.7561C18.7702 34.8095 18.7222 34.8761 18.6836 34.9558C18.6449 35.0355 18.6208 35.1256 18.6113 35.226C18.6008 35.3362 18.6061 35.4348 18.6273 35.5218C18.6501 35.609 18.6854 35.6843 18.7333 35.7477C18.7814 35.8095 18.8412 35.8594 18.9128 35.8972C18.9862 35.9336 19.0683 35.9562 19.159 35.9648C19.24 35.9725 19.316 35.965 19.3868 35.9423C19.4594 35.9182 19.5232 35.8834 19.5782 35.8379C19.635 35.791 19.6813 35.7341 19.7171 35.6672C19.7528 35.6003 19.7745 35.5271 19.7821 35.4477ZM20.698 37.7298L20.7484 37.2C20.9582 37.4014 21.2056 37.5157 21.4908 37.5428C21.7225 37.5648 21.9122 37.5297 22.0599 37.4375C22.2093 37.3455 22.2925 37.2095 22.3096 37.0296C22.3473 36.6343 22.0639 36.4079 21.4595 36.3504L21.1897 36.3247L21.2327 35.8727L21.4904 35.8972C22.0267 35.9482 22.3125 35.7874 22.348 35.4147C22.3807 35.0712 22.188 34.8796 21.77 34.8398C21.5366 34.8176 21.3091 34.8802 21.0875 35.0275L21.1351 34.5268C21.3843 34.4164 21.6701 34.3766 21.9926 34.4073C22.3021 34.4367 22.5426 34.5381 22.7141 34.7113C22.8856 34.8846 22.9598 35.0928 22.9367 35.3358C22.8931 35.7943 22.6317 36.067 22.1526 36.1539L22.1517 36.1636C22.4005 36.2118 22.5906 36.319 22.7219 36.4852C22.8534 36.6497 22.9084 36.8454 22.8868 37.0723C22.8571 37.385 22.7156 37.6266 22.4623 37.7971C22.2091 37.9659 21.8906 38.0321 21.5066 37.9955C21.1614 37.9627 20.8919 37.8741 20.698 37.7298ZM24.1023 37.5975L23.6102 38.7744L23.1873 38.7342L23.57 37.5468L24.1023 37.5975ZM26.7789 38.4382L24.5915 38.2301L24.6171 37.9603C24.6276 37.8502 24.6528 37.7487 24.6927 37.6561C24.7327 37.5618 24.7827 37.475 24.8425 37.3956C24.9025 37.3147 24.9709 37.2403 25.0477 37.1724C25.1246 37.1028 25.2061 37.037 25.2921 36.9749C25.3783 36.9112 25.4658 36.8508 25.5546 36.7939C25.6435 36.7353 25.7308 36.6766 25.8166 36.6177C25.8971 36.5616 25.971 36.5065 26.0383 36.4524C26.1057 36.3967 26.1644 36.3385 26.2143 36.2778C26.2642 36.2172 26.3047 36.1524 26.3358 36.0834C26.367 36.0128 26.3867 35.9354 26.3947 35.8511C26.4035 35.7588 26.3965 35.6772 26.3738 35.6063C26.3529 35.534 26.3187 35.4727 26.2711 35.4224C26.2254 35.3707 26.1687 35.3301 26.1012 35.3008C26.0339 35.2699 25.9589 35.2505 25.8762 35.2426C25.7337 35.2291 25.5855 35.2485 25.4317 35.3009C25.2779 35.3533 25.1267 35.4395 24.9779 35.5594L25.0295 35.0174C25.1059 34.9707 25.1824 34.9314 25.259 34.8994C25.3358 34.8659 25.4143 34.8398 25.4945 34.8213C25.5749 34.8012 25.6586 34.7887 25.7458 34.7839C25.8329 34.7791 25.925 34.7813 26.0222 34.7906C26.1794 34.8055 26.32 34.8401 26.444 34.8944C26.5681 34.9471 26.6717 35.0183 26.7548 35.1079C26.8379 35.196 26.8981 35.3022 26.9353 35.4268C26.9742 35.5514 26.9862 35.6916 26.9714 35.8471C26.958 35.9881 26.928 36.1136 26.8816 36.2236C26.837 36.3322 26.7776 36.432 26.7035 36.523C26.6311 36.6142 26.5453 36.6993 26.4463 36.7781C26.3472 36.857 26.2374 36.9373 26.1168 37.019C26.0156 37.0862 25.9145 37.1518 25.8136 37.2158C25.7145 37.2783 25.6243 37.3408 25.5432 37.4034C25.4622 37.4644 25.3949 37.5275 25.3412 37.5927C25.2894 37.6564 25.2602 37.7231 25.2535 37.7928L25.2524 37.8049L26.8249 37.9545L26.7789 38.4382ZM28.4576 38.6567C28.0947 38.6222 27.8252 38.447 27.6493 38.131C27.4749 37.8153 27.4144 37.3771 27.4678 36.8164C27.5263 36.2007 27.6768 35.745 27.9191 35.4492C28.1614 35.1535 28.4826 35.0246 28.8829 35.0627C29.6493 35.1356 29.9758 35.7675 29.8625 36.9584C29.8064 37.5482 29.655 37.9883 29.4083 38.2787C29.1634 38.5677 28.8465 38.6937 28.4576 38.6567ZM28.8134 35.5098C28.3905 35.4695 28.1347 35.9153 28.0461 36.8469C27.9632 37.7186 28.1291 38.1742 28.5439 38.2137C28.9522 38.2525 29.1985 37.8288 29.2828 36.9425C29.3701 36.0254 29.2136 35.5478 28.8134 35.5098ZM31.2234 38.9198C30.8605 38.8853 30.5911 38.7101 30.4151 38.3941C30.2408 38.0783 30.1803 37.6401 30.2336 37.0795C30.2922 36.4638 30.4426 36.0081 30.6849 35.7123C30.9272 35.4165 31.2485 35.2877 31.6487 35.3258C32.4151 35.3987 32.7417 36.0306 32.6284 37.2215C32.5723 37.8113 32.4209 38.2514 32.1742 38.5418C31.9292 38.8308 31.6123 38.9568 31.2234 38.9198ZM31.5792 35.7728C31.1563 35.7326 30.9005 36.1783 30.8119 37.11C30.729 37.9817 30.8949 38.4373 31.3097 38.4768C31.718 38.5156 31.9644 38.0919 32.0487 37.2056C32.1359 36.2885 31.9794 35.8109 31.5792 35.7728Z" fill="#1AD079"/>
<rect x="51.4607" y="8.48691" width="13" height="7" rx="0.837109" transform="rotate(5.43363 51.4607 8.48691)" fill="#D4EAF2"/>
<path opacity="0.7" d="M55.6868 13.9115L55.1812 13.8634L54.0443 11.6873C54.0155 11.6323 53.9928 11.5758 53.976 11.518L53.9644 11.5169C53.9691 11.5775 53.9621 11.7057 53.9435 11.9014L53.7696 13.7291L53.3224 13.6866L53.5876 10.8984L54.1262 10.9496L55.2231 13.0728C55.2696 13.1609 55.2992 13.2213 55.3118 13.2539L55.3196 13.2546C55.3136 13.1795 55.3191 13.0538 55.3358 12.8775L55.5067 11.0809L55.952 11.1233L55.6868 13.9115ZM58.0972 13.2598L56.74 13.1307C56.7277 13.3153 56.7706 13.4626 56.8687 13.5726C56.9681 13.6828 57.1124 13.7469 57.3016 13.7649C57.5142 13.7851 57.7154 13.7401 57.905 13.63L57.8704 13.9936C57.6781 14.0904 57.4329 14.1246 57.1348 14.0963C56.8418 14.0684 56.6203 13.9564 56.4702 13.7604C56.3216 13.5631 56.2628 13.3005 56.294 12.9726C56.3235 12.6628 56.4389 12.4193 56.6401 12.2423C56.8428 12.0641 57.0802 11.9879 57.3525 12.0138C57.6247 12.0397 57.827 12.1472 57.9594 12.3364C58.0918 12.5255 58.1432 12.7757 58.1136 13.0868L58.0972 13.2598ZM57.692 12.8995C57.7061 12.7374 57.6798 12.608 57.6131 12.5114C57.5466 12.4135 57.4472 12.3583 57.315 12.3457C57.1854 12.3334 57.0707 12.3702 56.971 12.4562C56.8725 12.5423 56.8057 12.6609 56.7704 12.8119L57.692 12.8995ZM61.3106 12.4374L60.534 14.3725L60.0615 14.3276L59.8283 12.9438C59.8189 12.8906 59.8154 12.8314 59.8177 12.7662L59.8099 12.7655C59.8031 12.8093 59.786 12.8652 59.7586 12.9333L59.2371 14.2492L58.7744 14.2051L58.3785 12.1585L58.8452 12.2029L59.0703 13.6722C59.0779 13.7161 59.0803 13.7738 59.0774 13.8455L59.091 13.8468C59.1001 13.7927 59.116 13.7354 59.1387 13.6748L59.6773 12.282L60.1012 12.3223L60.3219 13.7971C60.3293 13.8436 60.3323 13.9014 60.3309 13.9706L60.3445 13.9719C60.3517 13.9242 60.3668 13.8681 60.39 13.8036L60.8809 12.3965L61.3106 12.4374Z" fill="black"/>
<path opacity="0.7" d="M8.18224 47.8576L8.44745 45.0694L9.24074 45.1448C9.48184 45.1678 9.66743 45.2449 9.7975 45.3763C9.92757 45.5077 9.9836 45.6681 9.9656 45.8573C9.95056 46.0154 9.89471 46.1488 9.79806 46.2573C9.70141 46.3658 9.57557 46.4376 9.42052 46.4725L9.41978 46.4803C9.60564 46.5202 9.74922 46.6058 9.85052 46.7371C9.95195 46.8671 9.99354 47.028 9.97529 47.2198C9.95261 47.4583 9.84868 47.6433 9.66353 47.7748C9.47837 47.9063 9.25552 47.9597 8.99497 47.9349L8.18224 47.8576ZM8.74599 45.396L8.66036 46.2962L8.99479 46.328C9.17367 46.3451 9.31838 46.3157 9.42892 46.2398C9.53958 46.1627 9.60237 46.0458 9.61729 45.8889C9.64306 45.618 9.47771 45.4656 9.12125 45.4317L8.74599 45.396ZM8.63243 46.5898L8.537 47.5931L8.98031 47.6353C9.17215 47.6535 9.32489 47.6223 9.43851 47.5415C9.55343 47.4609 9.61842 47.3415 9.63346 47.1834C9.66478 46.8541 9.45619 46.6682 9.00769 46.6255L8.63243 46.5898ZM11.2499 48.1965C10.9556 48.1685 10.7292 48.0534 10.5705 47.8513C10.4133 47.648 10.3493 47.3927 10.3785 47.0855C10.4103 46.7511 10.5265 46.4986 10.7272 46.328C10.9278 46.1575 11.1837 46.087 11.4948 46.1166C11.7916 46.1448 12.0143 46.2582 12.1628 46.4567C12.3127 46.6554 12.3722 46.9168 12.3414 47.2408C12.3111 47.5584 12.1968 47.8045 11.9984 47.9793C11.8014 48.1528 11.5519 48.2252 11.2499 48.1965ZM11.4459 46.3827C11.2411 46.3632 11.0724 46.4178 10.9399 46.5464C10.8074 46.6738 10.7296 46.8599 10.7063 47.1049C10.6838 47.3408 10.7264 47.5326 10.834 47.6801C10.9416 47.8277 11.0965 47.9111 11.2987 47.9304C11.5048 47.95 11.6693 47.8982 11.7922 47.7752C11.9164 47.6523 11.9902 47.4677 12.0136 47.2214C12.0373 46.9726 11.9998 46.7754 11.9011 46.63C11.8038 46.4847 11.652 46.4023 11.4459 46.3827ZM12.6416 48.2092L12.6742 47.867C12.8357 48.0118 13.0208 48.0942 13.2295 48.114C13.5094 48.1406 13.6583 48.0606 13.6761 47.874C13.6811 47.8208 13.6731 47.7749 13.6519 47.7363C13.6321 47.6965 13.6029 47.6604 13.5641 47.6279C13.5266 47.5955 13.4811 47.5657 13.4274 47.5384C13.3752 47.5099 13.3185 47.4803 13.2573 47.4496C13.1725 47.4062 13.0981 47.3638 13.034 47.3224C12.9714 47.2798 12.9194 47.2343 12.8783 47.186C12.8385 47.1364 12.8097 47.082 12.7918 47.0227C12.7752 46.9636 12.7705 46.8958 12.7778 46.8193C12.7866 46.726 12.8159 46.6457 12.8654 46.5785C12.9151 46.51 12.9779 46.4551 13.0537 46.4139C13.1297 46.3715 13.2142 46.3422 13.3073 46.3262C13.4017 46.3104 13.4975 46.307 13.5947 46.3163C13.7671 46.3327 13.9185 46.3772 14.0489 46.4498L14.0182 46.7725C13.8809 46.6627 13.7169 46.5987 13.5264 46.5805C13.4668 46.5749 13.4123 46.5769 13.363 46.5866C13.3138 46.595 13.2705 46.6098 13.2332 46.6311C13.1971 46.6526 13.1677 46.6798 13.145 46.713C13.1236 46.745 13.1109 46.7817 13.107 46.8232C13.1021 46.875 13.107 46.9193 13.1218 46.956C13.1379 46.9929 13.1629 47.0266 13.1966 47.0573C13.2303 47.088 13.272 47.1168 13.3217 47.1438C13.3715 47.1707 13.4282 47.2003 13.4918 47.2326C13.5768 47.2746 13.6525 47.3172 13.7191 47.3601C13.7857 47.4018 13.8415 47.4476 13.8865 47.4977C13.9315 47.5464 13.9643 47.6012 13.9846 47.662C14.0063 47.7229 14.0133 47.7936 14.0057 47.8739C13.9963 47.9724 13.9661 48.0559 13.9152 48.1243C13.8655 48.1928 13.8021 48.2476 13.7249 48.2887C13.6478 48.3297 13.5608 48.3574 13.4639 48.3717C13.3671 48.3861 13.2668 48.3883 13.1631 48.3784C12.9583 48.359 12.7845 48.3025 12.6416 48.2092ZM15.3723 48.5219C15.2932 48.5562 15.1921 48.5675 15.0689 48.5558C14.7203 48.5226 14.5644 48.3116 14.6014 47.9227L14.7135 46.7445L14.3713 46.7119L14.3972 46.4397L14.7394 46.4723L14.7856 45.9862L15.1143 45.9135L15.0582 46.5026L15.5599 46.5503L15.534 46.8225L15.0323 46.7748L14.9256 47.8967C14.9129 48.0302 14.9266 48.1276 14.9665 48.189C15.0064 48.2503 15.0789 48.286 15.1839 48.296C15.2643 48.3036 15.3357 48.2882 15.3982 48.2497L15.3723 48.5219ZM16.624 48.7076C16.3298 48.6797 16.1034 48.5646 15.9447 48.3625C15.7875 48.1592 15.7235 47.9039 15.7527 47.5967C15.7845 47.2623 15.9007 47.0098 16.1014 46.8392C16.302 46.6686 16.5579 46.5982 16.869 46.6277C17.1658 46.656 17.3885 46.7694 17.537 46.9679C17.6869 47.1666 17.7464 47.428 17.7155 47.752C17.6853 48.0696 17.571 48.3157 17.3726 48.4904C17.1756 48.664 16.9261 48.7364 16.624 48.7076ZM16.8201 46.8938C16.6153 46.8744 16.4466 46.929 16.3141 47.0576C16.1816 47.185 16.1037 47.3711 16.0804 47.6161C16.058 47.852 16.1006 48.0438 16.2082 48.1913C16.3158 48.3389 16.4707 48.4223 16.6729 48.4415C16.879 48.4612 17.0435 48.4094 17.1664 48.2864C17.2905 48.1635 17.3643 47.9789 17.3878 47.7326C17.4114 47.4837 17.374 47.2866 17.2753 47.1412C17.1779 46.9959 17.0262 46.9135 16.8201 46.8938ZM19.7822 48.961L19.4633 48.9306L19.5714 47.7951C19.6115 47.3726 19.4774 47.1466 19.1689 47.1173C19.0095 47.1021 18.8715 47.1498 18.755 47.2604C18.64 47.3697 18.5738 47.5158 18.5564 47.6986L18.4484 48.8341L18.1295 48.8038L18.3189 46.8128L18.6378 46.8431L18.6063 47.1736L18.6141 47.1744C18.7884 46.9372 19.0181 46.8322 19.3033 46.8593C19.5211 46.88 19.6809 46.9665 19.7828 47.1188C19.8849 47.2697 19.9233 47.4781 19.898 47.7438L19.7822 48.961ZM20.7188 48.6027L20.3167 49.5298L20.0892 49.5081L20.4077 48.5731L20.7188 48.6027ZM25.2264 49.4788L24.9017 49.4479L25.0796 47.5775C25.0937 47.4297 25.1199 47.2497 25.1584 47.0376L25.1507 47.0368C25.1076 47.1596 25.0711 47.2471 25.0413 47.2992L23.8848 49.3512L23.7254 49.336L22.9769 47.1185C22.9556 47.0537 22.9368 46.9558 22.9205 46.8247L22.9127 46.824C22.9125 46.9364 22.9003 47.119 22.8763 47.3718L22.6987 49.2384L22.3838 49.2084L22.649 46.4202L23.0806 46.4613L23.7512 48.487C23.8031 48.6424 23.8353 48.7579 23.8477 48.8336L23.8594 48.8348C23.9297 48.6871 23.9852 48.5773 24.0261 48.5053L25.0833 46.6518L25.4916 46.6906L25.2264 49.4788ZM28.1196 49.754L27.7579 49.7196L27.5367 48.9099L26.3546 48.7974L26.0022 49.5526L25.6386 49.518L26.9732 46.8316L27.3115 46.8637L28.1196 49.754ZM27.4577 48.6061L27.1333 47.3765C27.1227 47.3363 27.1144 47.2727 27.1082 47.1858L27.1005 47.185C27.08 47.2629 27.0591 47.3237 27.038 47.3674L26.4914 48.5142L27.4577 48.6061ZM7.94073 53.8617L7.61408 53.8306L7.87929 51.0424L8.20594 51.0735L7.94073 53.8617ZM10.2856 54.0847L9.96674 54.0544L10.0748 52.9189C10.1149 52.4963 9.98079 52.2704 9.67229 52.241C9.51285 52.2259 9.3749 52.2736 9.25844 52.3841C9.1434 52.4935 9.07719 52.6396 9.0598 52.8224L8.95179 53.9579L8.63292 53.9275L8.8223 51.9365L9.14118 51.9668L9.10974 52.2974L9.11751 52.2981C9.2918 52.061 9.52152 51.9559 9.80669 51.9831C10.0245 52.0038 10.1843 52.0903 10.2862 52.2425C10.3883 52.3935 10.4267 52.6018 10.4014 52.8676L10.2856 54.0847ZM12.5411 54.2993L12.2222 54.2689L12.3313 53.1218C12.3708 52.707 12.2362 52.4849 11.9277 52.4556C11.7722 52.4408 11.6355 52.4886 11.5178 52.599C11.4001 52.7082 11.3324 52.8567 11.3145 53.0447L11.2072 54.1724L10.8884 54.1421L11.1687 51.1944L11.4876 51.2248L11.3652 52.5119L11.373 52.5127C11.5498 52.2757 11.7796 52.1707 12.0621 52.1976C12.5106 52.2403 12.7092 52.5319 12.6578 53.0724L12.5411 54.2993ZM14.8311 53.593L13.4254 53.4593C13.4095 53.6815 13.4528 53.8582 13.5554 53.9896C13.658 54.121 13.8091 54.1962 14.0087 54.2152C14.233 54.2365 14.4461 54.1823 14.6481 54.0524L14.6196 54.3518C14.4326 54.4622 14.1952 54.5037 13.9074 54.4763C13.6261 54.4496 13.4137 54.3385 13.2701 54.143C13.1266 53.9462 13.0705 53.6839 13.1017 53.3559C13.1311 53.0461 13.2426 52.8023 13.4361 52.6245C13.631 52.4456 13.8587 52.3685 14.1193 52.3933C14.3798 52.4181 14.5734 52.5215 14.6999 52.7036C14.8265 52.8856 14.8755 53.1264 14.847 53.4258L14.8311 53.593ZM14.5302 53.2917C14.5464 53.1075 14.5153 52.96 14.4369 52.8492C14.3598 52.7386 14.2435 52.6758 14.0879 52.661C13.9375 52.6467 13.8047 52.6884 13.6895 52.786C13.5743 52.8836 13.4961 53.0181 13.4549 53.1894L14.5302 53.2917ZM16.4251 52.9854C16.3734 52.9373 16.2951 52.9083 16.1901 52.8983C16.054 52.8853 15.9338 52.9386 15.8296 53.0582C15.7267 53.1779 15.6646 53.3486 15.6436 53.5702L15.547 54.5852L15.2281 54.5549L15.4175 52.5639L15.7364 52.5942L15.6974 53.0044L15.7052 53.0052C15.7638 52.8695 15.8436 52.7672 15.9443 52.6983C16.0451 52.6281 16.1532 52.5985 16.2686 52.6095C16.3516 52.6174 16.4142 52.6325 16.4566 52.6548L16.4251 52.9854ZM17.0133 52.2055C16.9563 52.2001 16.9095 52.176 16.873 52.1333C16.8366 52.0906 16.8212 52.0395 16.8268 51.9798C16.8325 51.9202 16.8573 51.8729 16.9012 51.8378C16.9452 51.8014 16.9957 51.786 17.0527 51.7914C17.111 51.7969 17.1584 51.8217 17.1948 51.8657C17.2325 51.9086 17.2486 51.9598 17.2429 52.0194C17.2375 52.0764 17.2121 52.1231 17.1668 52.1593C17.1228 52.1957 17.0717 52.2111 17.0133 52.2055ZM16.9314 54.7169L16.6125 54.6865L16.8019 52.6955L17.1208 52.7259L16.9314 54.7169ZM18.5023 54.8467C18.4232 54.881 18.3221 54.8923 18.1989 54.8806C17.8502 54.8474 17.6944 54.6364 17.7314 54.2476L17.8435 53.0693L17.5013 53.0367L17.5272 52.7645L17.8694 52.7971L17.9156 52.311L18.2443 52.2383L18.1882 52.8274L18.6899 52.8751L18.664 53.1473L18.1623 53.0996L18.0556 54.2215C18.0429 54.355 18.0565 54.4524 18.0965 54.5138C18.1364 54.5751 18.2089 54.6108 18.3139 54.6208C18.3943 54.6284 18.4657 54.613 18.5282 54.5745L18.5023 54.8467ZM20.3515 55.0422L20.0326 55.0119L20.0622 54.7008L20.0544 54.7C19.8931 54.9253 19.6776 55.0252 19.4079 54.9995C19.2096 54.9807 19.0591 54.9134 18.9563 54.7977C18.8548 54.6821 18.8123 54.5374 18.8288 54.3637C18.8642 53.9917 19.1039 53.7961 19.5478 53.7768L20.1527 53.75C20.1848 53.4117 20.0642 53.2295 19.7907 53.2035C19.5509 53.1807 19.3266 53.2418 19.118 53.3867L19.149 53.0601C19.3566 52.9542 19.5881 52.9135 19.8434 52.9378C20.3114 52.9823 20.5218 53.2521 20.4747 53.7473L20.3515 55.0422ZM20.1284 54.0047L19.6419 54.0251C19.4922 54.0318 19.3772 54.0581 19.2969 54.1041C19.2168 54.1488 19.1704 54.2379 19.1577 54.3715C19.1485 54.4687 19.1752 54.5517 19.238 54.6204C19.3022 54.688 19.392 54.7273 19.5074 54.7382C19.6655 54.7533 19.801 54.7106 19.9139 54.6101C20.0282 54.5085 20.0934 54.3728 20.1096 54.203L20.1284 54.0047ZM22.605 55.2566L22.2861 55.2262L22.3941 54.0907C22.4343 53.6682 22.3002 53.4422 21.9917 53.4128C21.8322 53.3977 21.6943 53.4454 21.5778 53.5559C21.4628 53.6653 21.3966 53.8114 21.3792 53.9942L21.2712 55.1297L20.9523 55.0993L21.1417 53.1083L21.4606 53.1387L21.4291 53.4692L21.4369 53.4699C21.6112 53.2328 21.8409 53.1278 22.1261 53.1549C22.3439 53.1756 22.5037 53.2621 22.6056 53.4144C22.7077 53.5653 22.7461 53.7737 22.7208 54.0394L22.605 55.2566ZM24.5736 55.3516C24.4119 55.4291 24.226 55.4578 24.0161 55.4379C23.7322 55.4109 23.5115 55.297 23.354 55.0963C23.198 54.8944 23.1339 54.6463 23.1619 54.3521C23.1931 54.0242 23.3121 53.77 23.5189 53.5895C23.7259 53.4078 23.9862 53.3318 24.2999 53.3617C24.4749 53.3783 24.626 53.4254 24.7534 53.5029L24.7223 53.8295C24.5844 53.7118 24.4312 53.6449 24.2627 53.6289C24.0592 53.6095 23.885 53.6668 23.7401 53.8009C23.5967 53.9337 23.5137 54.1187 23.4911 54.3559C23.469 54.5893 23.5124 54.7791 23.6214 54.9255C23.7317 55.0721 23.8899 55.1551 24.096 55.1747C24.2697 55.1912 24.4385 55.1491 24.6025 55.0483L24.5736 55.3516ZM26.7344 54.7253L25.3287 54.5916C25.3128 54.8137 25.3561 54.9905 25.4587 55.1219C25.5613 55.2533 25.7124 55.3285 25.912 55.3475C26.1363 55.3688 26.3494 55.3145 26.5514 55.1846L26.5229 55.484C26.3359 55.5944 26.0985 55.6359 25.8107 55.6086C25.5294 55.5818 25.317 55.4707 25.1734 55.2752C25.0299 55.0785 24.9738 54.8161 25.005 54.4882C25.0344 54.1784 25.1459 53.9346 25.3394 53.7568C25.5343 53.5778 25.762 53.5007 26.0226 53.5255C26.2831 53.5503 26.4767 53.6537 26.6032 53.8358C26.7298 54.0179 26.7788 54.2586 26.7503 54.5581L26.7344 54.7253ZM26.4335 54.4239C26.4497 54.2397 26.4186 54.0923 26.3402 53.9815C26.2631 53.8708 26.1468 53.8081 25.9912 53.7933C25.8408 53.779 25.708 53.8206 25.5928 53.9182C25.4776 54.0158 25.3994 54.1503 25.3583 54.3217L26.4335 54.4239Z" fill="black"/>
<path d="M0.80896 55.819L63.4813 62.2356L62.5605 71.2298C62.394 72.8554 60.9413 74.0383 59.3158 73.8718L2.5301 68.0579C0.904529 67.8915 -0.278335 66.4388 -0.111903 64.8132L0.80896 55.819Z" fill="#1AD079"/>
<path d="M18.1874 64.5494L18.2169 64.2609C18.247 64.2934 18.2837 64.3237 18.3269 64.3517C18.3712 64.3798 18.4177 64.4046 18.4665 64.4263C18.5164 64.4471 18.5667 64.4646 18.6173 64.4786C18.6679 64.4926 18.715 64.5018 18.7587 64.5063C18.9093 64.5217 19.0244 64.5055 19.1039 64.4577C19.1844 64.409 19.2301 64.3322 19.2408 64.2273C19.2466 64.171 19.239 64.1206 19.218 64.0762C19.198 64.032 19.1679 63.9906 19.1276 63.9521C19.0875 63.9127 19.0389 63.8743 18.9819 63.8371C18.9259 63.799 18.8652 63.7589 18.7998 63.7168C18.7307 63.6725 18.6665 63.6281 18.6073 63.5837C18.548 63.5394 18.4974 63.492 18.4554 63.4416C18.4135 63.3911 18.3818 63.3359 18.3605 63.2758C18.3402 63.2148 18.3341 63.1454 18.3421 63.0677C18.3518 62.9725 18.3811 62.8921 18.4301 62.8264C18.4791 62.7598 18.54 62.7071 18.6126 62.6684C18.6853 62.6297 18.766 62.6036 18.8548 62.5901C18.9445 62.5767 19.0345 62.5746 19.1249 62.5839C19.3308 62.605 19.4784 62.6451 19.5676 62.7043L19.5394 62.9797C19.4247 62.8816 19.2708 62.8227 19.0774 62.8029C19.024 62.7974 18.97 62.7977 18.9154 62.8039C18.8608 62.8092 18.8114 62.8223 18.767 62.8432C18.7227 62.8642 18.6853 62.8933 18.655 62.9304C18.6247 62.9676 18.6066 63.0148 18.6008 63.0721C18.5953 63.1255 18.6003 63.1727 18.6157 63.2135C18.6322 63.2545 18.6582 63.293 18.6937 63.329C18.7293 63.3651 18.7732 63.401 18.8255 63.4368C18.8788 63.4726 18.94 63.5123 19.0092 63.5557C19.0802 63.6003 19.1472 63.6464 19.21 63.694C19.2729 63.7417 19.327 63.7929 19.3725 63.8476C19.4179 63.9023 19.4521 63.9613 19.4751 64.0245C19.4991 64.0878 19.507 64.1584 19.4991 64.2361C19.4885 64.339 19.4592 64.4244 19.411 64.4921C19.3639 64.5589 19.3036 64.6112 19.2301 64.6488C19.1575 64.6865 19.0755 64.7105 18.9842 64.7208C18.8927 64.7321 18.7974 64.7326 18.6983 64.7225C18.6653 64.7191 18.6248 64.712 18.5768 64.7012C18.5287 64.6914 18.48 64.6785 18.4306 64.6627C18.381 64.6478 18.3342 64.6307 18.29 64.6115C18.2469 64.5913 18.2127 64.5707 18.1874 64.5494ZM21.0994 64.2394L20.0458 64.1315C20.0327 64.2981 20.0642 64.4309 20.1405 64.53C20.2167 64.6291 20.3296 64.6863 20.4792 64.7016C20.6473 64.7188 20.8074 64.6793 20.9596 64.5829L20.9367 64.8073C20.7958 64.8891 20.6175 64.919 20.4018 64.8969C20.191 64.8753 20.0323 64.7908 19.9256 64.6435C19.8191 64.4951 19.7784 64.298 19.8036 64.0523C19.8273 63.8201 19.9123 63.6378 20.0583 63.5055C20.2055 63.3724 20.3767 63.3158 20.572 63.3358C20.7672 63.3558 20.9118 63.4344 21.0058 63.5716C21.0997 63.7089 21.1352 63.8897 21.1122 64.1141L21.0994 64.2394ZM20.8753 64.0118C20.8884 63.8737 20.8659 63.763 20.8077 63.6794C20.7505 63.596 20.6636 63.5484 20.547 63.5364C20.4343 63.5249 20.3345 63.5554 20.2475 63.628C20.1606 63.7006 20.1012 63.801 20.0694 63.9293L20.8753 64.0118ZM22.6615 64.3993L21.6079 64.2915C21.5948 64.458 21.6264 64.5908 21.7026 64.6899C21.7788 64.789 21.8918 64.8462 22.0414 64.8615C22.2094 64.8787 22.3696 64.8392 22.5218 64.7429L22.4988 64.9673C22.3579 65.0491 22.1796 65.0789 21.964 65.0568C21.7531 65.0352 21.5944 64.9508 21.4878 64.8034C21.3812 64.655 21.3406 64.458 21.3657 64.2122C21.3895 63.98 21.4744 63.7978 21.6205 63.6655C21.7676 63.5323 21.9388 63.4757 22.1341 63.4957C22.3294 63.5157 22.474 63.5943 22.5679 63.7316C22.6618 63.8688 22.6973 64.0496 22.6743 64.274L22.6615 64.3993ZM22.4374 64.1717C22.4506 64.0337 22.4281 63.9229 22.3699 63.8394C22.3126 63.756 22.2257 63.7083 22.1091 63.6964C21.9964 63.6848 21.8966 63.7153 21.8097 63.7879C21.7227 63.8605 21.6634 63.9609 21.6316 64.0892L22.4374 64.1717ZM24.1308 64.4452L24.0499 65.235L23.8051 65.21L24.0191 63.1203L24.5932 63.1791C24.8166 63.202 24.984 63.2741 25.0953 63.3954C25.2075 63.5169 25.2535 63.6767 25.2332 63.8749C25.2129 64.073 25.1278 64.2283 24.9779 64.3405C24.8289 64.4529 24.6384 64.4972 24.4062 64.4734L24.1308 64.4452ZM24.2412 63.3669L24.1535 64.2237L24.4099 64.25C24.579 64.2673 24.7116 64.2421 24.8079 64.1744C24.9052 64.1058 24.9611 64.0011 24.9755 63.8603C25.0038 63.5844 24.8547 63.4297 24.5283 63.3963L24.2412 63.3669ZM26.3521 64.2073C26.3136 64.171 26.255 64.1488 26.1763 64.1408C26.0743 64.1303 25.9839 64.1697 25.9051 64.2588C25.8272 64.348 25.7798 64.4756 25.7628 64.6418L25.6849 65.4024L25.4459 65.378L25.5987 63.8858L25.8377 63.9102L25.8062 64.2177L25.8121 64.2183C25.8568 64.1169 25.9171 64.0406 25.993 63.9895C26.0691 63.9374 26.1503 63.9157 26.2368 63.9246C26.2989 63.931 26.3458 63.9426 26.3775 63.9596L26.3521 64.2073ZM27.1036 65.583C26.8831 65.5605 26.7139 65.4729 26.596 65.3205C26.4791 65.1672 26.4325 64.9754 26.4561 64.7451C26.4817 64.4945 26.5703 64.3058 26.7217 64.1789C26.8731 64.0521 27.0654 64.0006 27.2985 64.0245C27.521 64.0472 27.6874 64.1335 27.7977 64.2832C27.909 64.433 27.9522 64.6294 27.9273 64.8722C27.903 65.1102 27.8159 65.2942 27.6662 65.4242C27.5175 65.5533 27.33 65.6062 27.1036 65.583ZM27.2604 64.2238C27.1069 64.2081 26.9801 64.2481 26.88 64.3439C26.78 64.4387 26.7206 64.5779 26.7018 64.7615C26.6837 64.9383 26.7146 65.0823 26.7945 65.1936C26.8744 65.3048 26.9901 65.3682 27.1417 65.3837C27.2961 65.3995 27.4198 65.3616 27.5126 65.27C27.6064 65.1785 27.6627 65.0405 27.6816 64.8559C27.7007 64.6694 27.6737 64.5213 27.6005 64.4117C27.5282 64.3022 27.4149 64.2396 27.2604 64.2238ZM28.4991 65.4726L28.4932 65.472L28.4009 66.3741L28.1619 66.3496L28.3849 64.171L28.6239 64.1955L28.5971 64.4578L28.6029 64.4584C28.7407 64.2723 28.9228 64.1908 29.1492 64.2139C29.3415 64.2336 29.4848 64.316 29.5789 64.4611C29.6731 64.6053 29.7087 64.7896 29.6857 65.014C29.6602 65.2636 29.579 65.4575 29.4421 65.5957C29.3054 65.7329 29.1316 65.7907 28.9208 65.7691C28.7274 65.7493 28.5869 65.6505 28.4991 65.4726ZM28.5548 64.8702L28.5335 65.0786C28.5209 65.202 28.55 65.311 28.6208 65.4056C28.6927 65.4993 28.7903 65.5525 28.9137 65.5652C29.0584 65.58 29.1773 65.5362 29.2702 65.4338C29.3641 65.3315 29.4212 65.1817 29.4414 64.9845C29.4584 64.8184 29.4333 64.6843 29.3662 64.5822C29.2991 64.4801 29.2 64.4224 29.0689 64.4089C28.9299 64.3947 28.8132 64.4318 28.7188 64.5203C28.6244 64.6079 28.5698 64.7245 28.5548 64.8702ZM31.2562 65.2793L30.2027 65.1714C30.1895 65.338 30.2211 65.4708 30.2973 65.5699C30.3736 65.669 30.4865 65.7262 30.6361 65.7415C30.8042 65.7587 30.9643 65.7191 31.1165 65.6228L31.0935 65.8472C30.9526 65.929 30.7743 65.9589 30.5587 65.9368C30.3479 65.9152 30.1891 65.8307 30.0825 65.6833C29.976 65.535 29.9353 65.3379 29.9604 65.0922C29.9842 64.86 30.0691 64.6777 30.2152 64.5454C30.3623 64.4123 30.5336 64.3557 30.7288 64.3757C30.9241 64.3957 31.0687 64.4743 31.1626 64.6115C31.2566 64.7487 31.292 64.9296 31.2691 65.154L31.2562 65.2793ZM31.0321 65.0517C31.0453 64.9136 31.0228 64.8029 30.9646 64.7193C30.9073 64.6359 30.8204 64.5883 30.7039 64.5763C30.5912 64.5648 30.4913 64.5953 30.4044 64.6679C30.3175 64.7405 30.2581 64.8409 30.2263 64.9692L31.0321 65.0517ZM32.455 64.8322C32.4165 64.7958 32.3579 64.7736 32.2792 64.7656C32.1772 64.7551 32.0868 64.7945 32.008 64.8836C31.9301 64.9728 31.8827 65.1005 31.8657 65.2666L31.7878 66.0273L31.5488 66.0028L31.7016 64.5106L31.9406 64.5351L31.9091 64.8426L31.9149 64.8432C31.9597 64.7417 32.02 64.6654 32.0959 64.6143C32.1719 64.5622 32.2532 64.5406 32.3396 64.5494C32.4018 64.5558 32.4487 64.5675 32.4803 64.5845L32.455 64.8322ZM33.28 66.1653C33.2205 66.1907 33.1446 66.1986 33.0523 66.1891C32.791 66.1624 32.6752 66.0033 32.7051 65.7118L32.7955 64.8288L32.539 64.8025L32.5599 64.5985L32.8164 64.6247L32.8537 64.2604L33.1005 64.2077L33.0553 64.6492L33.4313 64.6877L33.4104 64.8917L33.0345 64.8532L32.9484 65.694C32.9381 65.7941 32.9478 65.8673 32.9774 65.9135C33.0071 65.9597 33.0612 65.9868 33.1399 65.9949C33.2001 66.0011 33.2538 65.9899 33.3009 65.9613L33.28 66.1653ZM34.9381 64.842L34.0745 66.5029C33.9204 66.7993 33.7327 66.9361 33.5112 66.9135C33.449 66.9071 33.3977 66.8955 33.3572 66.8786L33.3791 66.6644C33.4288 66.6871 33.475 66.7007 33.5178 66.7051C33.6383 66.7174 33.736 66.6547 33.8109 66.5171L33.9594 66.2467L33.5289 64.6977L33.7942 64.7249L34.0802 65.9145C34.0836 65.9295 34.0899 65.9685 34.0992 66.0313L34.1079 66.0322C34.1152 66.0094 34.1287 65.9734 34.1484 65.9244L34.6903 64.8166L34.9381 64.842ZM35.8943 66.4477L36.1082 64.3581L36.6853 64.4171C37.4216 64.4925 37.7551 64.8698 37.6855 65.5488C37.6525 65.8714 37.5235 66.1203 37.2984 66.2955C37.0744 66.4699 36.7909 66.5395 36.448 66.5044L35.8943 66.4477ZM36.3303 64.6046L36.1617 66.2513L36.4736 66.2832C36.7475 66.3113 36.9683 66.2597 37.1358 66.1287C37.3034 65.9976 37.4009 65.7975 37.4285 65.5284C37.4833 64.9931 37.226 64.6963 36.6568 64.638L36.3303 64.6046ZM39.2243 66.0951L38.1708 65.9872C38.1576 66.1538 38.1892 66.2866 38.2654 66.3857C38.3417 66.4848 38.4546 66.542 38.6042 66.5573C38.7723 66.5745 38.9324 66.535 39.0846 66.4386L39.0616 66.663C38.9207 66.7448 38.7425 66.7747 38.5268 66.7526C38.316 66.731 38.1573 66.6465 38.0506 66.4992C37.9441 66.3508 37.9034 66.1537 37.9286 65.908C37.9523 65.6758 38.0372 65.4935 38.1833 65.3612C38.3305 65.2281 38.5017 65.1715 38.6969 65.1915C38.8922 65.2115 39.0368 65.2901 39.1307 65.4273C39.2247 65.5646 39.2601 65.7454 39.2372 65.9698L39.2243 66.0951ZM39.0003 65.8675C39.0134 65.7294 38.9909 65.6187 38.9327 65.5352C38.8755 65.4517 38.7885 65.4041 38.672 65.3921C38.5593 65.3806 38.4595 65.4111 38.3725 65.4837C38.2856 65.5563 38.2262 65.6567 38.1944 65.785L39.0003 65.8675ZM40.2106 66.8749C40.1511 66.9002 40.0751 66.9082 39.9829 66.8987C39.7215 66.872 39.6058 66.7129 39.6356 66.4214L39.726 65.5383L39.4696 65.5121L39.4905 65.3081L39.7469 65.3343L39.7842 64.97L40.0311 64.9173L39.9859 65.3588L40.3619 65.3973L40.341 65.6013L39.965 65.5628L39.8789 66.4036C39.8687 66.5037 39.8784 66.5768 39.908 66.6231C39.9376 66.6693 39.9918 66.6964 40.0705 66.7045C40.1307 66.7106 40.1844 66.6995 40.2315 66.6709L40.2106 66.8749ZM41.5964 67.0315L41.3574 67.007L41.3813 66.7739L41.3754 66.7733C41.2532 66.9414 41.091 67.0151 40.889 66.9944C40.7403 66.9792 40.6278 66.9279 40.5513 66.8406C40.4758 66.7533 40.4447 66.6446 40.4581 66.5145C40.4866 66.2356 40.6674 66.0902 41.0004 66.0782L41.4542 66.0613C41.4802 65.8078 41.3907 65.6705 41.1857 65.6495C41.006 65.6311 40.8375 65.6757 40.6802 65.7833L40.7052 65.5385C40.8615 65.4602 41.0353 65.4309 41.2267 65.4505C41.5774 65.4864 41.7337 65.6899 41.6957 66.061L41.5964 67.0315ZM41.4347 66.2522L41.0697 66.2649C40.9573 66.2691 40.8709 66.2882 40.8105 66.3223C40.7502 66.3554 40.7149 66.422 40.7047 66.522C40.6972 66.5949 40.7168 66.6573 40.7635 66.7092C40.8113 66.7602 40.8785 66.7901 40.9649 66.799C41.0834 66.8111 41.1853 66.7798 41.2705 66.7051C41.3568 66.6295 41.4064 66.5281 41.4195 66.4008L41.4347 66.2522ZM42.3606 65.2191C42.3179 65.2147 42.2829 65.1964 42.2558 65.1642C42.2287 65.1319 42.2174 65.0935 42.222 65.0488C42.2266 65.0041 42.2454 64.9687 42.2785 64.9427C42.3117 64.9156 42.3497 64.9043 42.3924 64.9087C42.4361 64.9132 42.4715 64.932 42.4985 64.9652C42.5266 64.9975 42.5384 65.036 42.5338 65.0807C42.5295 65.1235 42.5102 65.1583 42.476 65.1852C42.4428 65.2123 42.4044 65.2235 42.3606 65.2191ZM42.2856 67.1021L42.0467 67.0776L42.1994 65.5854L42.4384 65.6099L42.2856 67.1021ZM43.0084 67.1761L42.7694 67.1516L42.9956 64.9425L43.2346 64.9669L43.0084 67.1761ZM43.4074 67.1625L43.4337 66.906C43.554 67.0155 43.6924 67.0782 43.8488 67.0943C44.0586 67.1157 44.1707 67.0565 44.185 66.9166C44.1891 66.8768 44.1833 66.8424 44.1676 66.8133C44.153 66.7833 44.1313 66.756 44.1024 66.7315C44.0744 66.707 44.0404 66.6844 44.0004 66.6636C43.9613 66.6419 43.919 66.6195 43.8733 66.5961C43.8099 66.5631 43.7543 66.5309 43.7065 66.4995C43.6597 66.4673 43.621 66.4329 43.5904 66.3963C43.5608 66.359 43.5395 66.318 43.5264 66.2735C43.5143 66.229 43.5111 66.1782 43.517 66.1208C43.5242 66.0509 43.5465 65.9908 43.584 65.9407C43.6217 65.8896 43.669 65.8488 43.7261 65.8183C43.7833 65.7869 43.8469 65.7654 43.9168 65.7539C43.9877 65.7425 44.0595 65.7405 44.1324 65.748C44.2616 65.7612 44.3749 65.7954 44.4723 65.8505L44.4476 66.0924C44.3452 66.0093 44.2225 65.9604 44.0797 65.9458C44.035 65.9412 43.9942 65.9424 43.9571 65.9494C43.9202 65.9555 43.8877 65.9664 43.8596 65.9822C43.8324 65.998 43.8102 66.0183 43.7929 66.0431C43.7768 66.0669 43.7671 66.0944 43.7639 66.1255C43.7599 66.1644 43.7634 66.1976 43.7743 66.2252C43.7862 66.2529 43.8047 66.2784 43.8298 66.3016C43.8549 66.3248 43.886 66.3466 43.9232 66.3671C43.9604 66.3876 44.0027 66.4101 44.0503 66.4346C44.1138 66.4666 44.1704 66.4989 44.22 66.5315C44.2698 66.5631 44.3114 66.5978 44.3448 66.6356C44.3784 66.6724 44.4026 66.7136 44.4176 66.7593C44.4335 66.8051 44.4384 66.8582 44.4322 66.9184C44.4247 66.9922 44.4016 67.0547 44.363 67.1057C44.3253 67.1568 44.2775 67.1975 44.2194 67.2279C44.1613 67.2583 44.0959 67.2786 44.0232 67.2888C43.9505 67.299 43.8753 67.3002 43.7976 67.2922C43.6441 67.2765 43.514 67.2333 43.4074 67.1625Z" fill="white"/>
</g>
<defs>
<clipPath id="clip0_270_201">
<rect x="6.43909" width="62" height="68" rx="3.34843" transform="rotate(5.43363 6.43909 0)" fill="white"/>
</clipPath>
</defs>
</svg>
