<svg width="34" height="26" viewBox="0 0 34 26" fill="none" xmlns="http://www.w3.org/2000/svg">
<path opacity="0.3" d="M26.375 0.5C28.2881 0.499737 30.1247 1.25135 31.4887 2.59278C32.8527 3.93421 33.6349 5.75798 33.6667 7.67083C33.8542 9.47292 33.8271 12.1312 32.6083 15.2C31.3625 18.3375 28.9333 21.7583 24.5 25.0833C24.2811 25.2475 24.0321 25.3669 23.767 25.4348C23.502 25.5027 23.2262 25.5178 22.9554 25.4791C22.4084 25.4009 21.9148 25.1087 21.5833 24.6667C21.2518 24.2246 21.1095 23.669 21.1876 23.122C21.2657 22.5751 21.558 22.0815 22 21.75C25.2583 19.3063 27.125 16.9312 28.1937 14.8542C27.1917 15.1115 26.1464 15.1526 25.1273 14.9749C24.1082 14.7972 23.1385 14.4046 22.2828 13.8233C21.427 13.242 20.7048 12.4853 20.164 11.6033C19.6232 10.7214 19.2763 9.73454 19.1462 8.70823C19.0162 7.68192 19.106 6.63969 19.4098 5.65076C19.7135 4.66184 20.2242 3.74888 20.9079 2.97251C21.5916 2.19614 22.4327 1.57415 23.3753 1.14786C24.3179 0.721561 25.3405 0.500718 26.375 0.5ZM7.62499 0.5C9.5381 0.499737 11.3747 1.25135 12.7387 2.59278C14.1027 3.93421 14.8849 5.75798 14.9167 7.67083C15.1042 9.47292 15.0771 12.1312 13.8583 15.2C12.6146 18.3375 10.1833 21.7583 5.74999 25.0833C5.53112 25.2475 5.28206 25.3669 5.01703 25.4348C4.752 25.5027 4.4762 25.5178 4.20536 25.4791C3.65838 25.4009 3.16484 25.1087 2.83332 24.6667C2.5018 24.2246 2.35945 23.669 2.43759 23.122C2.51573 22.5751 2.80796 22.0815 3.24999 21.75C6.50832 19.3063 8.37499 16.9312 9.44374 14.8542C8.44173 15.1115 7.39644 15.1526 6.37731 14.9749C5.35818 14.7972 4.38853 14.4046 3.53278 13.8233C2.67703 13.242 1.95477 12.4853 1.41398 11.6033C0.873191 10.7214 0.526254 9.73454 0.396215 8.70823C0.266176 7.68192 0.356012 6.63969 0.659755 5.65076C0.963499 4.66184 1.4742 3.74888 2.15792 2.97251C2.84165 2.19614 3.68275 1.57415 4.62535 1.14786C5.56795 0.721561 6.59047 0.500718 7.62499 0.5Z" fill="#030403"/>
</svg>
