<svg width="25" height="25" viewBox="0 0 25 25" fill="none" xmlns="http://www.w3.org/2000/svg">
<g clip-path="url(#clip0_270_14)">
<path d="M23.4098 12.007L12.9931 1.59031C12.863 1.46097 12.687 1.38837 12.5035 1.38837C12.3201 1.38837 12.1441 1.46097 12.0139 1.59031L1.59728 12.007C1.48351 12.1398 1.42406 12.3107 1.43082 12.4855C1.43757 12.6603 1.51002 12.826 1.6337 12.9497C1.75737 13.0734 1.92316 13.1459 2.09794 13.1526C2.27271 13.1594 2.4436 13.0999 2.57645 12.9861L12.5001 3.06253L22.4237 12.9931C22.5565 13.1069 22.7274 13.1663 22.9022 13.1596C23.077 13.1528 23.2427 13.0803 23.3664 12.9567C23.4901 12.833 23.5626 12.6672 23.5693 12.4924C23.5761 12.3177 23.5166 12.1468 23.4028 12.0139L23.4098 12.007Z" fill="#1AD079"/>
<path d="M19.4444 22.2222H15.9722V15.2778H9.02774V22.2222H5.55551V12.5L4.16663 13.8889V22.2222C4.16663 22.5906 4.31295 22.9438 4.57342 23.2043C4.83389 23.4648 5.18716 23.6111 5.55551 23.6111H10.4166V16.6666H14.5833V23.6111H19.4444C19.8128 23.6111 20.166 23.4648 20.4265 23.2043C20.687 22.9438 20.8333 22.5906 20.8333 22.2222V13.7222L19.4444 12.3333V22.2222Z" fill="black"/>
</g>
<defs>
<clipPath id="clip0_270_14">
<rect width="25" height="25" fill="white"/>
</clipPath>
</defs>
</svg>
