<svg width="16" height="9" viewBox="0 0 16 9" fill="none" xmlns="http://www.w3.org/2000/svg">
<path d="M0.388452 8.62214C0.129484 8.37023 0 8.04962 0 7.66031C0 7.27099 0.129484 6.95038 0.388452 6.69847L6.88621 0.377862C7.02747 0.240457 7.18049 0.143358 7.34529 0.0865645C7.51009 0.0297706 7.68666 0.00091603 7.875 0C8.06334 0 8.24603 0.0343509 8.42307 0.103053C8.60011 0.171755 8.74702 0.263358 8.86379 0.377862L15.3615 6.69847C15.6205 6.95038 15.75 7.27099 15.75 7.66031C15.75 8.04962 15.6205 8.37023 15.3615 8.62214C15.1026 8.87404 14.773 9 14.3728 9C13.9725 9 13.6429 8.87404 13.384 8.62214L7.875 3.26336L2.36603 8.62214C2.10706 8.87404 1.77747 9 1.37724 9C0.977018 9 0.647421 8.87404 0.388452 8.62214Z" fill="white"/>
</svg>
